<?xml version="1.0" standalone="no"?>
<!DOCTYPE svg PUBLIC "-//W3C//DTD SVG 1.1//EN" "http://www.w3.org/Graphics/SVG/1.1/DTD/svg11.dtd" >
<svg xmlns="http://www.w3.org/2000/svg">
<metadata></metadata>
<defs>
<font id="pangramlight" horiz-adv-x="0" >
<font-face units-per-em="2048" ascent="1638" descent="-410" />
<missing-glyph horiz-adv-x="550" />
<glyph unicode=" "  horiz-adv-x="550" />
<glyph unicode="&#x09;" horiz-adv-x="550" />
<glyph unicode="&#xa0;" horiz-adv-x="550" />
<glyph unicode="!" horiz-adv-x="395" d="M145 51q0 31 20.5 52.5t51.5 21.5t52.5 -21.5t21.5 -52.5q0 -29 -21.5 -50t-52.5 -21t-51.5 21t-20.5 50zM166 1454h100l-4 -1075h-92z" />
<glyph unicode="&#x22;" horiz-adv-x="579" d="M225 1126v344h84v-344h-84zM416 1126v344h82v-344h-82z" />
<glyph unicode="#" horiz-adv-x="1495" d="M164 377v98h287l45 426h-271v98h281l49 455h96l-47 -455h426l49 455h97l-50 -455h246v-98h-256l-45 -426h240v-98h-250l-41 -377h-96l41 377h-428l-41 -377h-97l41 377h-276zM547 475h428l45 426h-426z" />
<glyph unicode="$" horiz-adv-x="1280" d="M238 369h98q11 -133 100.5 -209t212.5 -84v635q-56 27 -89 43.5t-78.5 43.5t-72.5 49t-57.5 54t-46 64.5t-26.5 75.5t-11 92q0 145 110 240.5t271 101.5v143h49v-145q145 -10 243 -110.5t110 -240.5h-99q-11 101 -81 173.5t-173 82.5v-587q76 -36 131.5 -67.5t111 -74 t90 -87t56 -103t21.5 -125.5q0 -157 -113.5 -253t-296.5 -101v-144h-49v144q-166 11 -282.5 116t-128.5 273zM367 1130q0 -52 16 -95t37.5 -71.5t64 -58.5t74.5 -47t90 -45v567q-119 -5 -200.5 -75t-81.5 -175zM698 74q144 4 228 75.5t84 186.5q0 63 -23.5 116t-71 95.5 t-96.5 73t-121 65.5v-612z" />
<glyph unicode="%" horiz-adv-x="2017" d="M205 1137q0 141 98.5 239.5t239.5 98.5t239.5 -98.5t98.5 -239.5t-98.5 -239.5t-239.5 -98.5t-239.5 98.5t-98.5 239.5zM285 1137q0 -109 74.5 -183.5t183.5 -74.5t183.5 74.5t74.5 183.5t-74.5 183.5t-183.5 74.5t-183.5 -74.5t-74.5 -183.5zM428 0l1098 1454h100 l-1098 -1454h-100zM1178 317q0 141 98.5 239.5t239.5 98.5t239 -98.5t98 -239.5t-98 -239t-239 -98t-239.5 98t-98.5 239zM1257 317q0 -108 75.5 -183t183.5 -75q109 0 184.5 74.5t75.5 183.5t-75.5 183.5t-184.5 74.5q-108 0 -183.5 -75t-75.5 -183z" />
<glyph unicode="&#x26;" horiz-adv-x="1486" d="M205 430q0 128 67 225t160 144q-129 136 -129 299q0 157 111.5 267t296.5 110q176 0 282.5 -114t106.5 -278h-99q0 128 -79.5 212.5t-212.5 84.5q-138 0 -223 -83t-85 -205q0 -47 12 -89t35.5 -77.5t42.5 -57.5t50 -53l540 -563q113 150 113 364h-100v64h200 q0 -313 -145 -498l174 -182h-121l-115 117q-153 -137 -389 -137q-113 0 -207.5 36.5t-156 98.5t-95.5 143.5t-34 171.5zM303 446q0 -158 111 -265t293 -107q187 0 315 112l-530 553q-78 -36 -133.5 -113.5t-55.5 -179.5z" />
<glyph unicode="'" horiz-adv-x="391" d="M225 1126v344h84v-344h-84z" />
<glyph unicode="(" horiz-adv-x="671" d="M164 197v897q0 92 28.5 163t77.5 113t109 63t129 21v-94q-42 0 -83 -14t-78.5 -43t-61 -83t-23.5 -126v-897q0 -72 23.5 -126t61 -83.5t78.5 -43.5t83 -14v-94q-69 0 -129.5 21t-109 63.5t-77 113.5t-28.5 163z" />
<glyph unicode=")" horiz-adv-x="651" d="M143 -70q42 0 83 14t78.5 43.5t61 83.5t23.5 126v897q0 72 -23.5 126t-61 83t-78.5 43t-83 14v94q69 0 129 -21t109 -63t77.5 -113t28.5 -163v-897q0 -92 -28.5 -163t-77 -113.5t-109 -63.5t-129.5 -21v94z" />
<glyph unicode="*" horiz-adv-x="1009" d="M205 1096v84l272 -9l-143 232l72 41l129 -238l129 240l73 -41l-143 -234l272 9v-84l-272 8l143 -232l-73 -41l-129 240l-129 -240l-72 43l141 230z" />
<glyph unicode="+" horiz-adv-x="1081" d="M205 543v94h289v289h94v-289h289v-94h-289v-289h-94v289h-289z" />
<glyph unicode="," horiz-adv-x="354" d="M61 -242l74 344h117l-107 -344h-84z" />
<glyph unicode="-" horiz-adv-x="974" d="M172 512v94h672v-94h-672z" />
<glyph unicode="." horiz-adv-x="309" d="M61 51q0 31 21.5 52.5t50.5 21.5q31 0 52.5 -21.5t21.5 -52.5q0 -29 -21.5 -50t-52.5 -21q-29 0 -50.5 21t-21.5 50z" />
<glyph unicode="/" horiz-adv-x="798" d="M102 0l545 1454h90l-544 -1454h-91z" />
<glyph unicode="0" horiz-adv-x="1300" d="M164 479v496q0 143 69.5 258.5t185 178.5t251.5 63q137 0 253 -63t185.5 -178.5t69.5 -258.5v-496q0 -143 -69.5 -258t-185.5 -178t-253 -63t-252 63t-184.5 178t-69.5 258zM262 479q0 -172 119 -288.5t289 -116.5q171 0 290 116.5t119 288.5v496q0 172 -119 288.5 t-290 116.5q-170 0 -289 -116.5t-119 -288.5v-496z" />
<glyph unicode="1" horiz-adv-x="1067" d="M143 0v94h361v1233l-279 -78v99l379 106v-1360h361v-94h-822z" />
<glyph unicode="2" horiz-adv-x="1318" d="M184 0v94q0 64 30.5 123t82 106.5t118.5 93t141 88t147.5 85.5t140.5 91t118.5 99t82 115.5t30.5 134.5q0 154 -103.5 252t-260.5 98q-189 0 -308.5 -107.5t-119.5 -268.5h-99q0 200 147 335.5t382 135.5q201 0 332 -124.5t131 -322.5q0 -81 -30.5 -154.5t-82 -131 t-118.5 -109.5t-141 -96.5t-147.5 -86t-140.5 -82.5t-118.5 -82.5t-82 -90.5t-30.5 -101h891v-94h-992z" />
<glyph unicode="3" horiz-adv-x="1325" d="M184 457h99q0 -166 119 -274.5t298 -108.5q177 0 280 95t103 234q0 82 -34.5 142.5t-93.5 94t-127.5 49.5t-145.5 16h-117v94h117q156 0 248 71.5t92 204.5q0 132 -94.5 218.5t-247.5 86.5q-177 0 -287 -108.5t-110 -274.5h-99q0 98 35 185t98 152t158 103t209 38 q195 0 315.5 -114t120.5 -282q0 -117 -56.5 -198.5t-154.5 -124.5q123 -41 198 -130.5t75 -226.5q0 -84 -32 -159.5t-91 -133.5t-150.5 -92t-203.5 -34q-114 0 -212 38t-165.5 102.5t-105.5 151.5t-38 185z" />
<glyph unicode="4" horiz-adv-x="1339" d="M143 313v97l797 1044h98v-1044h199v-97h-199v-313h-98v313h-797zM268 410h672v890z" />
<glyph unicode="5" horiz-adv-x="1325" d="M184 457h99q2 -164 111 -271.5t288 -107.5q165 0 283 114t118 285q0 190 -115 298t-284 108q-57 0 -113.5 -13t-110.5 -40t-96.5 -75t-62.5 -110h-98l125 809h751v-94h-667l-80 -518q71 65 168 98t198 33q98 0 185.5 -34t154 -96t105.5 -158t39 -212q0 -136 -66.5 -249.5 t-181 -178.5t-250.5 -65q-151 0 -266.5 66t-174.5 173.5t-59 237.5z" />
<glyph unicode="6" horiz-adv-x="1366" d="M205 471q0 149 86 274l463 709h114l-346 -526q84 35 185 35q135 0 249.5 -67t180 -180.5t65.5 -244.5q0 -132 -65.5 -245t-180 -179.5t-249.5 -66.5q-139 0 -254.5 66.5t-181.5 179.5t-66 245zM303 471q0 -164 117.5 -280.5t286.5 -116.5q165 0 281 117t116 280 q0 162 -116 279.5t-281 117.5q-169 0 -286.5 -117t-117.5 -280z" />
<glyph unicode="7" horiz-adv-x="1204" d="M164 1360v94h938v-94l-647 -1360h-109l649 1360h-831z" />
<glyph unicode="8" horiz-adv-x="1318" d="M184 412q0 133 76.5 233.5t204.5 149.5q-90 45 -144.5 124t-54.5 183q0 109 59.5 193t153 125.5t201.5 41.5q80 0 154 -25t132 -69.5t93 -114t35 -151.5q0 -103 -55 -182t-144 -125q127 -49 204 -149.5t77 -233.5q0 -185 -139 -302.5t-357 -117.5t-357 117.5t-139 302.5z M283 412q0 -144 113.5 -235t283.5 -91t282.5 91t112.5 235t-112.5 234.5t-282.5 90.5t-283.5 -90.5t-113.5 -234.5zM365 1102q0 -65 28.5 -117t74.5 -84t100.5 -48.5t111.5 -16.5q56 0 110.5 16.5t100.5 48.5t74 84t28 117t-28 117t-74 84t-100.5 48.5t-110.5 16.5 q-57 0 -111.5 -16.5t-100.5 -48.5t-74.5 -84t-28.5 -117z" />
<glyph unicode="9" horiz-adv-x="1366" d="M205 983q0 132 65.5 245t180 180t251.5 67q209 0 354.5 -145t145.5 -347q0 -137 -76 -260l-473 -723h-114l348 526q-84 -34 -185 -34q-137 0 -251.5 67t-180 180t-65.5 244zM303 983q0 -162 116.5 -278.5t282.5 -116.5q168 0 285 116.5t117 278.5q0 164 -117 280.5 t-285 116.5q-166 0 -282.5 -116.5t-116.5 -280.5z" />
<glyph unicode=":" horiz-adv-x="391" d="M143 51q0 31 21.5 52.5t50.5 21.5q31 0 52.5 -21.5t21.5 -52.5q0 -29 -21.5 -50t-52.5 -21q-29 0 -50.5 21t-21.5 50zM143 889q0 31 21.5 52.5t50.5 21.5q31 0 52.5 -21.5t21.5 -52.5t-21.5 -51.5t-52.5 -20.5q-30 0 -51 21t-21 51z" />
<glyph unicode=";" horiz-adv-x="360" d="M59 -242l74 344h117l-105 -344h-86zM111 889q0 31 20.5 51.5t50.5 20.5q31 0 52.5 -20.5t21.5 -51.5t-21.5 -51.5t-52.5 -20.5q-30 0 -50.5 20.5t-20.5 51.5z" />
<glyph unicode="&#x3c;" horiz-adv-x="1077" d="M201 553v92l671 291v-92l-565 -244l565 -246v-92z" />
<glyph unicode="=" horiz-adv-x="1081" d="M205 428v94h672v-94h-672zM205 657v97h672v-97h-672z" />
<glyph unicode="&#x3e;" horiz-adv-x="1081" d="M205 262v92l567 244l-567 246v92l672 -291v-92z" />
<glyph unicode="?" horiz-adv-x="1075" d="M139 1034q0 101 35 185t94 139.5t136.5 86t162.5 30.5q97 0 176.5 -31t129.5 -83t77 -117t27 -134q0 -160 -104.5 -264t-274.5 -125l-2 -342h-92l-4 416h14q166 0 265.5 80t99.5 225q0 119 -83.5 199.5t-226.5 80.5q-137 0 -234 -93t-97 -253h-99zM477 51q0 31 21.5 52.5 t50.5 21.5q31 0 52.5 -21.5t21.5 -52.5q0 -29 -21.5 -50t-52.5 -21q-29 0 -50.5 21t-21.5 50z" />
<glyph unicode="@" horiz-adv-x="2009" d="M205 698q0 169 66 319t175.5 255t256 166t303.5 61q172 0 320.5 -59.5t253.5 -163.5t164.5 -251t59.5 -318q0 -222 -98 -363t-242 -141q-102 0 -148 76t-46 233q-42 -86 -128.5 -139.5t-189.5 -53.5q-152 0 -259 111t-107 268t107 268t259 111q101 0 187 -52t129 -136 v182h82v-563q0 -50 5 -87.5t18 -73.5t40.5 -55.5t67.5 -19.5q96 0 168.5 118t72.5 308q0 206 -86.5 368t-250.5 255.5t-379 93.5q-191 0 -354.5 -90.5t-263 -256.5t-99.5 -370q0 -134 41.5 -249.5t109 -196t154 -138t177 -85t177.5 -27.5q196 0 367 92l74 -47 q-201 -127 -441 -127q-103 0 -207.5 32t-201 98t-171 156.5t-119 218.5t-44.5 273zM672 698q0 -122 87 -208.5t210 -86.5q121 0 208 86.5t87 208.5q0 123 -86.5 210t-208.5 87q-123 0 -210 -87t-87 -210z" />
<glyph unicode="A" horiz-adv-x="1443" d="M164 0l524 1454h109l524 -1454h-102l-144 397h-665l-144 -397h-102zM444 492h598l-299 829z" />
<glyph unicode="B" horiz-adv-x="1212" d="M168 0v1454h397q219 0 329 -98.5t110 -263.5q0 -231 -193 -318q127 -46 200.5 -148t73.5 -239q0 -187 -128 -287t-367 -100h-422zM266 94h324q197 0 297 75t100 222q0 150 -99.5 240t-281.5 90h-340v-627zM266 815h299q172 0 256 66t84 206q0 131 -86 202t-254 71h-299 v-545z" />
<glyph unicode="C" horiz-adv-x="1482" d="M184 727q0 152 56 290t151.5 238.5t231 160t286.5 59.5q266 0 430 -148v-104q-174 157 -421 157q-129 0 -246.5 -51.5t-202.5 -139t-135.5 -208.5t-50.5 -254t50.5 -254t135.5 -208.5t202.5 -139t246.5 -51.5q246 0 421 157v-104q-163 -147 -430 -147q-202 0 -369 100.5 t-261.5 271.5t-94.5 375z" />
<glyph unicode="D" horiz-adv-x="1396" d="M160 0v1454h438q152 0 280.5 -56.5t215.5 -154t135.5 -231t48.5 -285.5t-48.5 -285.5t-135.5 -231t-215.5 -154t-280.5 -56.5h-438zM258 94h340q169 0 302.5 81.5t206.5 225.5t73 326t-73 326t-206.5 225.5t-302.5 81.5h-340v-1266z" />
<glyph unicode="E" horiz-adv-x="1021" d="M160 0v1454h743v-94h-645v-551h494v-94h-494v-621h645v-94h-743z" />
<glyph unicode="F" horiz-adv-x="989" d="M143 0v1454h744v-94h-645v-545h534v-96h-534v-719h-99z" />
<glyph unicode="G" horiz-adv-x="1761" d="M184 727q0 152 53.5 289t147.5 238.5t230 161t292 59.5q362 0 578 -310l-76 -59q-195 274 -502 274q-175 0 -319 -88.5t-224.5 -238t-80.5 -326.5t79.5 -326.5t221.5 -238t315 -88.5q168 0 304.5 77t216.5 208t96 294h-633v97h735q0 -218 -88.5 -393t-253 -276 t-377.5 -101q-153 0 -287.5 59.5t-227.5 160.5t-146.5 238t-53.5 289z" />
<glyph unicode="H" horiz-adv-x="1333" d="M160 0v1454h98v-663h856v663h100v-1454h-100v696h-856v-696h-98z" />
<glyph unicode="I" horiz-adv-x="385" d="M164 0v1454h98v-1454h-98z" />
<glyph unicode="J" horiz-adv-x="917" d="M164 287h98q0 -89 59 -151t148 -62q40 0 74 11.5t65.5 39.5t49.5 82.5t18 132.5v1114h98v-1114q0 -184 -85.5 -272t-215.5 -88q-126 0 -217.5 85t-91.5 222z" />
<glyph unicode="K" horiz-adv-x="1249" d="M164 0v1454h98v-846l737 846h127l-604 -694l604 -760h-118l-549 686l-197 -225v-461h-98z" />
<glyph unicode="L" horiz-adv-x="1019" d="M184 0v1454h99v-1360h594v-94h-693z" />
<glyph unicode="M" horiz-adv-x="1720" d="M172 0v1454h98l611 -999l610 999h100v-1454h-100v1272l-580 -950h-61l-580 950v-1272h-98z" />
<glyph unicode="N" horiz-adv-x="1394" d="M164 0v1454h98l912 -1286v1286h98v-1454h-98l-912 1286v-1286h-98z" />
<glyph unicode="O" horiz-adv-x="1783" d="M184 727q0 152 56 289.5t152 238.5t231.5 160.5t287.5 59.5t288 -59.5t232.5 -160.5t152.5 -238.5t56 -289.5q0 -203 -95 -374t-263 -272t-371 -101t-370.5 101t-262 272t-94.5 374zM283 727q0 -131 49.5 -251.5t133 -208.5t200 -140.5t245.5 -52.5t246 52.5t201 140.5 t133 208.5t49 251.5t-49 251.5t-133 208.5t-201 140.5t-246 52.5t-245.5 -52.5t-200 -140.5t-133 -208.5t-49.5 -251.5z" />
<glyph unicode="P" horiz-adv-x="1212" d="M160 0v1454h434q107 0 197.5 -29.5t158.5 -85.5t106 -145t38 -201q0 -148 -66.5 -253t-178 -155t-255.5 -50h-336v-535h-98zM258 629h336q182 0 291.5 91t109.5 273t-109.5 274.5t-291.5 92.5h-336v-731z" />
<glyph unicode="Q" horiz-adv-x="1781" d="M184 727q0 152 56 289.5t152 238.5t231.5 160.5t287.5 59.5t288 -59.5t232.5 -160.5t152.5 -238.5t56 -289.5t-55 -288.5t-155 -239.5l215 -215l-70 -70l-217 219q-196 -153 -447 -153q-203 0 -370.5 101t-262 272t-94.5 374zM283 727q0 -131 49.5 -251.5t133 -208.5 t200 -140.5t245.5 -52.5q209 0 377 129l-211 213l68 67l215 -215q86 90 133 209t47 250t-49 251.5t-133 208.5t-201 140.5t-246 52.5t-245.5 -52.5t-200 -140.5t-133 -208.5t-49.5 -251.5z" />
<glyph unicode="R" horiz-adv-x="1216" d="M160 0v1454h489q117 0 217.5 -55.5t164 -164.5t63.5 -249q0 -179 -99 -301t-250 -156l353 -528h-115l-342 518h-383v-518h-98zM258 612h391q142 0 244 102.5t102 270.5q0 170 -102 272.5t-244 102.5h-391v-748z" />
<glyph unicode="S" horiz-adv-x="1230" d="M217 369h98q13 -142 112.5 -218.5t231.5 -76.5q151 0 240.5 72t89.5 190q0 68 -27 123.5t-81 100.5t-107.5 76t-134.5 69q-49 24 -71.5 35t-64.5 34t-62.5 37t-53 37.5t-48.5 43t-37 48t-30.5 56.5t-16.5 63t-7 74q0 149 115 245.5t282 96.5q158 0 265.5 -102.5 t119.5 -250.5h-98q-12 110 -91.5 184t-195.5 74q-125 0 -212 -70.5t-87 -179.5q0 -53 18 -97.5t37.5 -72t69 -60t75.5 -46t95 -45.5q17 -8 25 -12q79 -37 135.5 -68.5t113.5 -75t92.5 -88t57.5 -104t22 -127.5q0 -160 -119 -257t-309 -97q-175 0 -302.5 106.5t-139.5 282.5z " />
<glyph unicode="T" horiz-adv-x="1083" d="M143 1360v94h838v-94h-371v-1360h-98v1360h-369z" />
<glyph unicode="U" horiz-adv-x="1366" d="M160 571v883h98v-883q0 -129 33 -226t94 -155.5t141 -87t179 -28.5q98 0 177.5 28.5t140 87t93.5 155.5t33 226v883h98v-883q0 -293 -145.5 -442t-396.5 -149q-252 0 -398.5 149t-146.5 442z" />
<glyph unicode="V" horiz-adv-x="1417" d="M143 1454h103l483 -1333l483 1333h103l-531 -1454h-110z" />
<glyph unicode="W" horiz-adv-x="2273" d="M143 1454h103l430 -1319l430 1319h102l430 -1319l433 1319h100l-475 -1454h-113l-426 1298l-424 -1298h-115z" />
<glyph unicode="X" horiz-adv-x="1464" d="M143 0l549 727l-549 727h121l488 -647l489 647h121l-549 -727l549 -727h-121l-489 647l-488 -647h-121z" />
<glyph unicode="Y" horiz-adv-x="1366" d="M143 1454h113l446 -723l449 723h113l-512 -827v-627h-99v627z" />
<glyph unicode="Z" horiz-adv-x="1376" d="M184 0v94l944 1266h-944v94h1069v-94l-944 -1266h944v-94h-1069z" />
<glyph unicode="[" horiz-adv-x="671" d="M164 -164v1618h344v-94h-246v-1430h246v-94h-344z" />
<glyph unicode="\" horiz-adv-x="798" d="M102 1454h91l544 -1454h-90z" />
<glyph unicode="]" horiz-adv-x="651" d="M143 -70h246v1430h-246v94h344v-1618h-344v94z" />
<glyph unicode="^" horiz-adv-x="1009" d="M102 635l377 819h92l377 -819h-92l-330 719l-331 -719h-93z" />
<glyph unicode="_" horiz-adv-x="1331" d="M61 -68h1250v-82h-1250v82z" />
<glyph unicode="`" horiz-adv-x="700" d="M205 1466h114l177 -282h-82z" />
<glyph unicode="a" horiz-adv-x="1185" d="M184 281q0 64 25.5 115.5t66 84t94.5 54.5t108 31t110 9q117 0 213.5 -34.5t142.5 -69.5v131q0 87 -10.5 147t-40 114t-89.5 81t-151 27q-114 0 -226.5 -44.5t-178.5 -90.5v90q221 131 420 131q94 0 163 -25.5t109 -65.5t63.5 -102t31 -122.5t7.5 -139.5v-602h-96l-2 51 v31q-48 -34 -144 -68t-212 -34q-70 0 -138 16.5t-129.5 50.5t-99 94.5t-37.5 139.5zM283 281q0 -61 31 -107t81.5 -71t103.5 -36.5t107 -11.5q107 0 204 37t134 72v227q-37 35 -134 72t-204 37q-55 0 -107.5 -10.5t-103 -34t-81.5 -68.5t-31 -106z" />
<glyph unicode="b" horiz-adv-x="1417" d="M176 0v1536h98v-778q58 133 184 216t281 83q109 0 208.5 -42.5t171 -115t113.5 -171.5t42 -208q0 -147 -71.5 -271.5t-194.5 -196.5t-269 -72q-156 0 -281.5 83.5t-183.5 217.5l-2 -281h-96zM283 520q0 -185 130 -315.5t314 -130.5q122 0 225.5 60t163.5 162.5t60 223.5 q0 119 -60 221t-163.5 162t-225.5 60q-184 0 -314 -130.5t-130 -312.5z" />
<glyph unicode="c" horiz-adv-x="1208" d="M184 520q0 144 72 268t196.5 196.5t272.5 72.5q204 0 340 -142v-102q-143 150 -330 150q-183 0 -315.5 -130t-132.5 -313q0 -122 61 -225t164 -162t223 -59q188 0 330 149v-102q-135 -141 -340 -141q-148 0 -272.5 72.5t-196.5 197t-72 270.5z" />
<glyph unicode="d" horiz-adv-x="1425" d="M184 520q0 109 42 208t113.5 171.5t171 115t208.5 42.5q156 0 281 -83t182 -216v778h100v-1536h-96l-4 281q-56 -134 -181.5 -217.5t-281.5 -83.5q-146 0 -269 72t-194.5 196.5t-71.5 271.5zM283 520q0 -121 60 -223.5t163 -162.5t225 -60q184 0 314.5 130.5t130.5 315.5 q0 182 -130.5 312.5t-314.5 130.5q-185 0 -316.5 -130.5t-131.5 -312.5z" />
<glyph unicode="e" horiz-adv-x="1290" d="M184 524q0 229 139 381t357 152q110 0 200 -44t147.5 -119.5t88.5 -174t31 -209.5v-29h-862q10 -200 128 -306.5t304 -106.5q200 0 375 135v-88q-64 -56 -167 -95.5t-220 -39.5q-111 0 -206.5 37.5t-165.5 106.5t-109.5 172t-39.5 228zM285 561h764q-13 178 -108.5 292 t-258.5 114q-168 0 -277.5 -111.5t-119.5 -294.5z" />
<glyph unicode="f" horiz-adv-x="679" d="M123 942v94h92v174q0 130 56.5 197.5t152.5 67.5q85 0 154 -54v-90q-17 15 -55.5 32t-73.5 17q-136 0 -136 -186v-158h248v-94h-248v-942h-98v942h-92z" />
<glyph unicode="g" horiz-adv-x="1425" d="M184 520q0 109 42 208t113.5 171.5t171 115t208.5 42.5q156 0 281 -83t182 -216l6 278h94v-962q0 -277 -139.5 -421.5t-380.5 -144.5q-229 0 -465 140v90q30 -20 67.5 -40t98 -46t136 -42t149.5 -16q205 0 319.5 119t114.5 361v207q-56 -134 -181.5 -217.5t-281.5 -83.5 q-146 0 -269 72t-194.5 196.5t-71.5 271.5zM283 520q0 -121 60 -223.5t163 -162.5t225 -60q184 0 314.5 130.5t130.5 315.5q0 182 -130.5 312.5t-314.5 130.5q-185 0 -316.5 -130.5t-131.5 -312.5z" />
<glyph unicode="h" horiz-adv-x="1226" d="M184 0v1536h99v-723q67 108 174 176t254 68q177 0 283 -118t106 -339v-600h-99v569q0 198 -87 296t-230 98q-86 0 -156.5 -29.5t-113.5 -73.5t-73.5 -100t-43 -103.5t-14.5 -89.5v-567h-99z" />
<glyph unicode="i" horiz-adv-x="413" d="M123 946v90h168v-1036h-98v942zM152 1313q0 31 21 52t50 21q31 0 52.5 -21t21.5 -52q0 -29 -21.5 -50.5t-52.5 -21.5q-29 0 -50 21.5t-21 50.5z" />
<glyph unicode="j" horiz-adv-x="405" d="M61 -471l162 479v934l-69 4v90h168v-1036l-158 -471h-103zM174 1309q0 31 21 52t51 21q31 0 52 -21t21 -52q0 -29 -21.5 -50.5t-51.5 -21.5q-29 0 -50.5 21.5t-21.5 50.5z" />
<glyph unicode="k" horiz-adv-x="1148" d="M184 0v1536h99v-1063l604 563h139l-481 -450l481 -586h-125l-428 520l-190 -178v-342h-99z" />
<glyph unicode="l" horiz-adv-x="434" d="M143 1446v90h168v-1536h-98v1442z" />
<glyph unicode="m" horiz-adv-x="1894" d="M184 0v1036h92l7 -229q67 111 164.5 180.5t222.5 69.5q129 0 215 -74t116 -201q66 121 168 198t236 77q163 0 254.5 -114t91.5 -302v-641h-98v616q0 158 -72.5 252.5t-202.5 94.5q-100 0 -180.5 -60t-125.5 -155.5t-54 -208.5v-539h-98v616q0 158 -73.5 252.5 t-203.5 94.5q-99 0 -179.5 -60t-126 -155.5t-54.5 -208.5v-539h-99z" />
<glyph unicode="n" horiz-adv-x="1226" d="M184 0v1036h92l7 -223q67 109 173.5 176.5t254.5 67.5q177 0 283 -118t106 -339v-600h-99v569q0 198 -87 296t-230 98q-86 0 -156.5 -29.5t-113.5 -73.5t-73.5 -100t-43 -103.5t-14.5 -89.5v-567h-99z" />
<glyph unicode="o" horiz-adv-x="1417" d="M184 520q0 145 72.5 268.5t198.5 196t276 72.5q149 0 274 -72.5t197 -196t72 -268.5q0 -147 -72 -271.5t-197 -196.5t-274 -72q-112 0 -213.5 42.5t-174.5 115t-116 172.5t-43 210zM283 520q0 -121 60 -223.5t163 -162.5t225 -60q184 0 314.5 130.5t130.5 315.5 q0 182 -130.5 312.5t-314.5 130.5q-185 0 -316.5 -130.5t-131.5 -312.5z" />
<glyph unicode="p" horiz-adv-x="1425" d="M184 -471v1507h92l7 -278q58 134 182.5 216.5t279.5 82.5q109 0 208.5 -42.5t171.5 -115t114.5 -171.5t42.5 -208q0 -147 -72 -271.5t-195.5 -196.5t-269.5 -72q-155 0 -279.5 83t-182.5 218v-752h-99zM291 520q0 -185 129.5 -315.5t314.5 -130.5q122 0 225 60 t162.5 162.5t59.5 223.5q0 182 -131 312.5t-316 130.5t-314.5 -130.5t-129.5 -312.5z" />
<glyph unicode="q" horiz-adv-x="1425" d="M184 520q0 109 42 208t113.5 171.5t171 115t208.5 42.5q156 0 281 -83t182 -216l6 278h94v-1507h-100v752q-56 -134 -181.5 -217.5t-281.5 -83.5q-146 0 -269 72t-194.5 196.5t-71.5 271.5zM283 520q0 -121 60 -223.5t163 -162.5t225 -60q184 0 314.5 130.5t130.5 315.5 q0 182 -130.5 312.5t-314.5 130.5q-185 0 -316.5 -130.5t-131.5 -312.5z" />
<glyph unicode="r" horiz-adv-x="733" d="M184 0v1036h92l7 -157q99 178 254 178q75 0 135 -47l-25 -84q-55 37 -115 37q-66 0 -116 -36.5t-78 -96t-41.5 -125t-13.5 -132.5v-573h-99z" />
<glyph unicode="s" horiz-adv-x="1091" d="M184 260h99q31 -89 108 -140.5t197 -51.5t190 49t70 127q0 25 -4 46t-15.5 40t-21.5 33t-33.5 30t-38.5 25.5t-49.5 25t-54.5 24t-65 27.5t-70 29q-48 19 -79.5 33.5t-72.5 40t-65.5 52t-42 66.5t-17.5 87q0 114 96 184t222 70q139 0 231 -73.5t104 -192.5h-98 q-12 83 -77 131.5t-158 48.5q-85 0 -152.5 -45.5t-67.5 -122.5q0 -23 7 -43t16.5 -35.5t30 -31.5t37 -27t49 -26.5t55 -25t65.5 -27.5t70 -30q56 -23 93 -41t79.5 -46.5t67.5 -58.5t42 -73t17 -94q0 -118 -99.5 -191t-262.5 -73q-159 0 -266.5 74.5t-135.5 205.5z" />
<glyph unicode="t" horiz-adv-x="653" d="M123 942v94h133v307h98v-307h197v-94h-197v-942h-98v942h-133z" />
<glyph unicode="u" horiz-adv-x="1226" d="M168 436v600h98v-569q0 -198 87.5 -295.5t230.5 -97.5q89 0 161 31t115 77t72.5 103.5t41 106.5t11.5 89v555h98v-1036h-94l-4 223q-151 -243 -428 -243q-177 0 -283 117.5t-106 338.5z" />
<glyph unicode="v" horiz-adv-x="1282" d="M164 1036h110l388 -930l387 930h110l-442 -1036h-113z" />
<glyph unicode="w" horiz-adv-x="1888" d="M164 1036h104l322 -911l321 911h105l321 -911l324 911h104l-374 -1036h-105l-321 891l-324 -891h-102z" />
<glyph unicode="x" horiz-adv-x="1257" d="M164 0l424 518l-424 518h123l362 -448l363 448h123l-424 -518l424 -518h-123l-363 449l-362 -449h-123z" />
<glyph unicode="y" horiz-adv-x="1306" d="M164 1036h106l408 -911l399 911h107l-660 -1507h-106l207 473z" />
<glyph unicode="z" horiz-adv-x="1099" d="M184 0v94l662 848h-662v94h793v-94l-664 -848h664v-94h-793z" />
<glyph unicode="{" horiz-adv-x="761" d="M213 598v94q102 0 102 70q0 56 -30.5 206t-30.5 234q0 66 20 113.5t50 73.5t78.5 41.5t92 19.5t103.5 4v-94h-3q-30 0 -46.5 -0.5t-46 -4t-47 -10t-39.5 -20t-34 -32.5t-21 -49t-9 -68q0 -72 30 -213t30 -201q0 -117 -74 -117q74 0 74 -117q0 -60 -30 -200.5t-30 -212.5 q0 -30 5.5 -55t13.5 -43t22.5 -32.5t27 -23.5t33.5 -15t34.5 -9t37.5 -5t36 -2h36v-94q-60 0 -103.5 4t-92 19.5t-78.5 41.5t-50 73.5t-20 113.5q0 84 30.5 234t30.5 206q0 70 -102 70z" />
<glyph unicode="|" horiz-adv-x="292" d="M121 -164v1782h84v-1782h-84z" />
<glyph unicode="}" horiz-adv-x="724" d="M127 -70h36t36 2t37.5 5t34.5 9t33.5 15t27 23.5t22.5 32.5t13.5 43t5.5 55q0 72 -30 212.5t-30 200.5q0 117 74 117q-74 0 -74 117q0 60 30 201t30 213q0 38 -9 68t-21 49t-34 32.5t-39.5 20t-47 10t-46 4t-46.5 0.5h-3v94q60 0 103.5 -4t92 -19.5t78.5 -41.5t50 -73.5 t20 -113.5q0 -84 -30.5 -234t-30.5 -206q0 -70 102 -70v-94q-102 0 -102 -70q0 -56 30.5 -206t30.5 -234q0 -66 -20 -113.5t-50 -73.5t-78.5 -41.5t-92 -19.5t-103.5 -4v94z" />
<glyph unicode="~" horiz-adv-x="1179" d="M205 457q3 75 55 130.5t146 55.5q43 0 83 -16.5t71 -39.5t61 -46t65.5 -39.5t71.5 -16.5q64 0 97.5 33t33.5 80l86 -10q-3 -76 -54.5 -131.5t-146.5 -55.5q-52 0 -102 24.5t-83 53.5t-78 53.5t-89 24.5q-62 0 -95.5 -34t-33.5 -79z" />
<glyph unicode="&#xa1;" horiz-adv-x="395" d="M145 911q0 30 21 51t51 21q31 0 52.5 -21.5t21.5 -50.5q0 -31 -21.5 -52t-52.5 -21t-51.5 21t-20.5 52zM166 -492l4 1078h92l4 -1078h-100z" />
<glyph unicode="&#xa2;" horiz-adv-x="1310" d="M205 520q0 211 145 365.5t357 169.5v129h47v-127q198 -3 331 -142v-102q-143 150 -329 150h-2v-889h2q187 0 329 149v-102q-132 -138 -331 -141v-127h-47v129q-213 15 -357.5 170t-144.5 368zM307 520q0 -173 116 -299t284 -145v885q-168 -19 -284 -145t-116 -296z" />
<glyph unicode="&#xa3;" horiz-adv-x="1366" d="M205 -8v100q62 34 116.5 49t129.5 15q48 0 112 -11q-3 162 -32 260t-95 185h-231v47h190q-93 114 -141.5 214t-48.5 216q0 174 127.5 291t324.5 117q206 0 324.5 -135.5t118.5 -344.5h-99q0 172 -91 278.5t-257 106.5q-152 0 -251 -90t-99 -227q0 -107 49 -196.5 t156 -219.5q2 -4 8 -10h393v-47h-358q60 -91 85.5 -198.5t25.5 -270.5q14 -3 58.5 -15t66.5 -17t59.5 -10t71.5 -5q130 0 243 69v-98q-59 -35 -113.5 -50t-129.5 -15q-91 0 -236 40.5t-231 40.5q-74 0 -129.5 -16.5t-116.5 -52.5z" />
<glyph unicode="&#xa4;" horiz-adv-x="1155" d="M205 291l127 127q-81 92 -83.5 213.5t73.5 216.5l-117 119l37 32l112 -114q95 91 226 93.5t229 -83.5l106 104l35 -32l-106 -107q86 -98 83.5 -227.5t-93.5 -224.5l116 -117l-35 -35l-118 117q-95 -75 -215.5 -72t-214.5 82l-125 -127zM330 639q0 -105 76 -182t182 -77 t182 77t76 182t-76 182t-182 77t-182 -77t-76 -182z" />
<glyph unicode="&#xa5;" horiz-adv-x="1529" d="M205 1454h112l447 -723l448 723h113l-512 -827v-92h418v-48h-418v-96h418v-47h-418v-344h-98v344h-416v47h416v96h-416v48h416v92z" />
<glyph unicode="&#xa6;" horiz-adv-x="292" d="M121 -164v594h84v-594h-84zM121 1024v594h84v-594h-84z" />
<glyph unicode="&#xa7;" horiz-adv-x="1019" d="M184 713q0 91 70 163.5t184 100.5q-223 88 -223 250q0 112 85 180t214 68q145 0 228 -79.5t96 -197.5h-82q-13 89 -73.5 141t-168.5 52q-90 0 -152.5 -45.5t-62.5 -126.5q0 -133 248 -199q133 -38 186 -64q144 -74 144 -215q0 -89 -72.5 -162.5t-188.5 -101.5 q232 -86 232 -248q0 -113 -83 -181t-214 -68q-147 0 -230 78.5t-96 199.5h84q13 -90 73.5 -142.5t168.5 -52.5q91 0 153 45t62 123q0 42 -23.5 77t-66 59.5t-81 39.5t-87.5 29q-9 3 -27 8q-38 11 -58 17.5t-56 20.5t-57 26.5t-48.5 34t-42 44.5t-25 55.5t-10.5 70.5z M268 717q0 -72 42.5 -113.5t115.5 -66.5q34 -9 74 -9q126 0 209.5 63t83.5 144q0 40 -14.5 71.5t-41 53t-54.5 36t-65 26.5q-36 4 -59 4q-124 0 -207.5 -62.5t-83.5 -146.5z" />
<glyph unicode="&#xa8;" horiz-adv-x="851" d="M205 1319q0 31 20.5 51.5t50.5 20.5q31 0 52.5 -20.5t21.5 -51.5t-21.5 -51.5t-52.5 -20.5q-30 0 -50.5 20.5t-20.5 51.5zM502 1319q0 31 21 51.5t50 20.5q31 0 52.5 -20.5t21.5 -51.5t-21.5 -51.5t-52.5 -20.5q-29 0 -50 20.5t-21 51.5z" />
<glyph unicode="&#xa9;" horiz-adv-x="1966" d="M205 768q0 161 62.5 307t167.5 251t250.5 167.5t305.5 62.5q161 0 307 -62.5t252 -167.5t169 -251t63 -307t-63 -307t-169 -251t-252 -167.5t-307 -62.5q-160 0 -305.5 62.5t-250.5 167.5t-167.5 251t-62.5 307zM287 768q0 -192 94.5 -354.5t257 -256.5t354.5 -94 q191 0 353.5 94t257 256.5t94.5 354.5t-94.5 354.5t-257 256.5t-353.5 94q-192 0 -354.5 -94t-257 -256.5t-94.5 -354.5zM467 770q0 107 42.5 204t113.5 165.5t166.5 108.5t197.5 40q200 0 350 -133l-37 -76q-134 121 -305 121q-179 0 -307.5 -125.5t-128.5 -304.5 q0 -120 59 -220t159 -157t218 -57q171 0 305 121l37 -76q-150 -133 -350 -133q-137 0 -256 67.5t-191.5 188.5t-72.5 266z" />
<glyph unicode="&#xab;" horiz-adv-x="974" d="M205 485l252 324h112l-252 -324l252 -323h-112zM446 485l252 324h113l-252 -324l252 -323h-113z" />
<glyph unicode="&#xac;" horiz-adv-x="1081" d="M205 551v94h672v-268h-95v174h-577z" />
<glyph unicode="&#xad;" horiz-adv-x="974" d="M172 512v94h672v-94h-672z" />
<glyph unicode="&#xae;" horiz-adv-x="1966" d="M205 766q0 161 62.5 307t167.5 251t250.5 167.5t305.5 62.5q161 0 307 -62.5t252 -167.5t169 -251t63 -307t-63 -307t-169 -251.5t-252 -168t-307 -62.5q-160 0 -305.5 62.5t-250.5 168t-167.5 251.5t-62.5 307zM287 766q0 -143 56 -273.5t150 -225t225 -150.5t275 -56 q191 0 353.5 94.5t257 257t94.5 353.5q0 192 -94.5 355t-257 257.5t-353.5 94.5q-144 0 -275 -56t-225 -150.5t-150 -225.5t-56 -275zM743 354v858h275q126 0 204 -72.5t78 -203.5q0 -109 -55.5 -178t-150.5 -90l206 -314h-98l-196 305h-179v-305h-84zM827 743h191 q90 0 145.5 48t55.5 145t-55.5 145.5t-145.5 48.5h-191v-387z" />
<glyph unicode="&#xaf;" horiz-adv-x="829" d="M205 1280v94h416v-94h-416z" />
<glyph unicode="&#xb0;" horiz-adv-x="942" d="M164 1137q0 141 98.5 239.5t239.5 98.5t239.5 -98.5t98.5 -239.5t-98.5 -239.5t-239.5 -98.5t-239.5 98.5t-98.5 239.5zM244 1137q0 -109 74.5 -183.5t183.5 -74.5t183.5 74.5t74.5 183.5t-74.5 183.5t-183.5 74.5t-183.5 -74.5t-74.5 -183.5z" />
<glyph unicode="&#xb1;" horiz-adv-x="1081" d="M205 156v94h672v-94h-672zM205 643v94h289v289h94v-289h289v-94h-289v-289h-94v289h-289z" />
<glyph unicode="&#xb4;" horiz-adv-x="700" d="M205 1184l176 282h115l-207 -282h-84z" />
<glyph unicode="&#xb6;" horiz-adv-x="1218" d="M205 999q0 147 65.5 251.5t175.5 154t254 49.5h82v-1454h-82v547q-221 0 -358 116.5t-137 335.5zM930 0v1454h84v-1454h-84z" />
<glyph unicode="&#xb7;" horiz-adv-x="301" d="M61 516q0 30 21 51t51 21q31 0 52.5 -20.5t21.5 -51.5t-21.5 -51.5t-52.5 -20.5q-30 0 -51 21t-21 51z" />
<glyph unicode="&#xb8;" horiz-adv-x="712" d="M205 -375l22 62q213 0 213 88q0 66 -125 69l-57 -2l55 158h78l-47 -100q71 -3 117.5 -35t46.5 -88q0 -152 -303 -152z" />
<glyph unicode="&#xbb;" horiz-adv-x="899" d="M129 162l252 323l-252 324h113l252 -324l-252 -323h-113zM371 162l252 323l-252 324h112l252 -324l-252 -323h-112z" />
<glyph unicode="&#xbf;" horiz-adv-x="995" d="M100 -147q0 160 104.5 264t274.5 125l2 344h92l5 -418h-15q-166 0 -264 -80t-98 -225q0 -119 82.5 -200t224.5 -81q88 0 162.5 39t122 119.5t47.5 187.5h98q0 -133 -60 -235t-156.5 -153.5t-211.5 -51.5q-97 0 -176.5 31t-129.5 83t-77 117t-27 134zM455 911 q0 29 21.5 50.5t51.5 21.5q29 0 50.5 -21.5t21.5 -50.5q0 -31 -21 -52t-51 -21q-31 0 -52 21t-21 52z" />
<glyph unicode="&#xc0;" horiz-adv-x="1443" d="M164 0l524 1454h109l524 -1454h-102l-144 397h-665l-144 -397h-102zM444 492h598l-299 829zM494 1958h114l176 -283h-84z" />
<glyph unicode="&#xc1;" horiz-adv-x="1443" d="M164 0l524 1454h109l524 -1454h-102l-144 397h-665l-144 -397h-102zM444 492h598l-299 829zM702 1675l177 283h114l-207 -283h-84z" />
<glyph unicode="&#xc2;" horiz-adv-x="1443" d="M164 0l524 1454h109l524 -1454h-102l-144 397h-665l-144 -397h-102zM444 492h598l-299 829zM487 1675l213 283h91l213 -283h-99l-160 223l-159 -223h-99z" />
<glyph unicode="&#xc3;" horiz-adv-x="1443" d="M164 0l524 1454h109l524 -1454h-102l-144 397h-665l-144 -397h-102zM358 1751q3 75 55 130.5t146 55.5q43 0 83 -16t71 -39.5t61 -46.5t65.5 -39t71.5 -16q64 0 97.5 32.5t33.5 79.5l86 -10q-3 -76 -54 -131t-146 -55q-43 0 -83 16t-71 39t-61 45.5t-66 38.5t-72 16 q-62 0 -95.5 -33.5t-33.5 -78.5zM444 492h598l-299 829z" />
<glyph unicode="&#xc4;" horiz-adv-x="1443" d="M164 0l524 1454h109l524 -1454h-102l-144 397h-665l-144 -397h-102zM444 492h598l-299 829zM522 1810q0 31 21.5 52.5t50.5 21.5q31 0 52.5 -21.5t21.5 -52.5q0 -29 -21.5 -50t-52.5 -21q-29 0 -50.5 21t-21.5 50zM819 1810q0 31 21.5 52.5t50.5 21.5q31 0 52.5 -21.5 t21.5 -52.5q0 -29 -21.5 -50t-52.5 -21q-29 0 -50.5 21t-21.5 50z" />
<glyph unicode="&#xc5;" horiz-adv-x="1443" d="M164 0l524 1454h109l524 -1454h-102l-144 397h-665l-144 -397h-102zM444 492h598l-299 829zM600 1835q0 60 41.5 101.5t101.5 41.5q59 0 100.5 -41.5t41.5 -101.5t-41.5 -101.5t-100.5 -41.5q-60 0 -101.5 41.5t-41.5 101.5zM659 1835q0 -34 24.5 -58t59.5 -24 q34 0 58 24t24 58t-24 58t-58 24q-35 0 -59.5 -24t-24.5 -58z" />
<glyph unicode="&#xc6;" horiz-adv-x="1966" d="M164 0l821 1454h895v-94h-645v-551h494v-94h-494v-621h645v-94h-743v399h-639l-226 -399h-108zM551 494h586v866h-97z" />
<glyph unicode="&#xc7;" horiz-adv-x="1482" d="M184 727q0 152 56 290t151.5 238.5t231 160t286.5 59.5q266 0 430 -148v-104q-174 157 -421 157q-129 0 -246.5 -51.5t-202.5 -139t-135.5 -208.5t-50.5 -254t50.5 -254t135.5 -208.5t202.5 -139t246.5 -51.5q246 0 421 157v-104q-158 -141 -409 -147l-37 -80 q71 -3 117.5 -35t46.5 -88q0 -152 -303 -152l22 62q213 0 213 88q0 66 -125 69l-57 -2l49 140q-189 13 -343.5 116t-241.5 269t-87 360z" />
<glyph unicode="&#xc8;" horiz-adv-x="1021" d="M160 0v1454h743v-94h-645v-551h494v-94h-494v-621h645v-94h-743zM281 1958h114l176 -283h-84z" />
<glyph unicode="&#xc9;" horiz-adv-x="1021" d="M160 0v1454h743v-94h-645v-551h494v-94h-494v-621h645v-94h-743zM487 1675l177 283h114l-207 -283h-84z" />
<glyph unicode="&#xca;" horiz-adv-x="1021" d="M160 0v1454h743v-94h-645v-551h494v-94h-494v-621h645v-94h-743zM272 1675l213 283h90l213 -283h-98l-160 223l-159 -223h-99z" />
<glyph unicode="&#xcb;" horiz-adv-x="1021" d="M160 0v1454h743v-94h-645v-551h494v-94h-494v-621h645v-94h-743zM309 1810q0 31 21.5 52.5t50.5 21.5q31 0 52.5 -21.5t21.5 -52.5q0 -29 -21.5 -50t-52.5 -21q-29 0 -50.5 21t-21.5 50zM606 1810q0 31 21.5 52.5t50.5 21.5q31 0 52.5 -21.5t21.5 -52.5q0 -29 -21.5 -50 t-52.5 -21q-29 0 -50.5 21t-21.5 50z" />
<glyph unicode="&#xcc;" horiz-adv-x="385" d="M-37 1958h115l176 -283h-84zM164 0v1454h98v-1454h-98z" />
<glyph unicode="&#xcd;" horiz-adv-x="385" d="M164 0v1454h98v-1454h-98zM172 1675l176 283h115l-207 -283h-84z" />
<glyph unicode="&#xce;" horiz-adv-x="385" d="M-43 1675l213 283h90l213 -283h-98l-160 223l-160 -223h-98zM164 0v1454h98v-1454h-98z" />
<glyph unicode="&#xcf;" horiz-adv-x="385" d="M-8 1810q0 31 21 52.5t50 21.5q31 0 52.5 -21.5t21.5 -52.5q0 -29 -21.5 -50t-52.5 -21q-29 0 -50 21t-21 50zM164 0v1454h98v-1454h-98zM289 1810q0 31 21 52.5t50 21.5q31 0 52.5 -21.5t21.5 -52.5q0 -29 -21.5 -50t-52.5 -21q-29 0 -50 21t-21 50z" />
<glyph unicode="&#xd0;" horiz-adv-x="1396" d="M-59 680v94h219v680h438q152 0 280.5 -56.5t215.5 -154t135.5 -231t48.5 -285.5t-48.5 -285.5t-135.5 -231t-215.5 -154t-280.5 -56.5h-438v680h-219zM258 94h340q169 0 302.5 81.5t206.5 225.5t73 326t-73 326t-206.5 225.5t-302.5 81.5h-340v-586h354v-94h-354v-586z " />
<glyph unicode="&#xd1;" horiz-adv-x="1394" d="M164 0v1454h98l912 -1286v1286h98v-1454h-98l-912 1286v-1286h-98zM350 1751q3 75 55 130.5t146 55.5q43 0 83 -16t71 -39.5t61 -46.5t65.5 -39t71.5 -16q64 0 97.5 32.5t33.5 79.5l86 -10q-3 -76 -54 -131t-146 -55q-43 0 -83 16t-71 39t-61 45.5t-66 38.5t-72 16 q-62 0 -95.5 -33.5t-33.5 -78.5z" />
<glyph unicode="&#xd2;" horiz-adv-x="1783" d="M184 727q0 152 56 289.5t152 238.5t231.5 160.5t287.5 59.5t288 -59.5t232.5 -160.5t152.5 -238.5t56 -289.5q0 -203 -95 -374t-263 -272t-371 -101t-370.5 101t-262 272t-94.5 374zM283 727q0 -131 49.5 -251.5t133 -208.5t200 -140.5t245.5 -52.5t246 52.5t201 140.5 t133 208.5t49 251.5t-49 251.5t-133 208.5t-201 140.5t-246 52.5t-245.5 -52.5t-200 -140.5t-133 -208.5t-49.5 -251.5zM662 1958h114l176 -283h-84z" />
<glyph unicode="&#xd3;" horiz-adv-x="1783" d="M184 727q0 152 56 289.5t152 238.5t231.5 160.5t287.5 59.5t288 -59.5t232.5 -160.5t152.5 -238.5t56 -289.5q0 -203 -95 -374t-263 -272t-371 -101t-370.5 101t-262 272t-94.5 374zM283 727q0 -131 49.5 -251.5t133 -208.5t200 -140.5t245.5 -52.5t246 52.5t201 140.5 t133 208.5t49 251.5t-49 251.5t-133 208.5t-201 140.5t-246 52.5t-245.5 -52.5t-200 -140.5t-133 -208.5t-49.5 -251.5zM870 1675l177 283h114l-207 -283h-84z" />
<glyph unicode="&#xd4;" horiz-adv-x="1783" d="M184 727q0 152 56 289.5t152 238.5t231.5 160.5t287.5 59.5t288 -59.5t232.5 -160.5t152.5 -238.5t56 -289.5q0 -203 -95 -374t-263 -272t-371 -101t-370.5 101t-262 272t-94.5 374zM283 727q0 -131 49.5 -251.5t133 -208.5t200 -140.5t245.5 -52.5t246 52.5t201 140.5 t133 208.5t49 251.5t-49 251.5t-133 208.5t-201 140.5t-246 52.5t-245.5 -52.5t-200 -140.5t-133 -208.5t-49.5 -251.5zM655 1675l213 283h90l213 -283h-98l-160 223l-159 -223h-99z" />
<glyph unicode="&#xd5;" horiz-adv-x="1783" d="M184 727q0 152 56 289.5t152 238.5t231.5 160.5t287.5 59.5t288 -59.5t232.5 -160.5t152.5 -238.5t56 -289.5q0 -203 -95 -374t-263 -272t-371 -101t-370.5 101t-262 272t-94.5 374zM283 727q0 -131 49.5 -251.5t133 -208.5t200 -140.5t245.5 -52.5t246 52.5t201 140.5 t133 208.5t49 251.5t-49 251.5t-133 208.5t-201 140.5t-246 52.5t-245.5 -52.5t-200 -140.5t-133 -208.5t-49.5 -251.5zM526 1751q3 75 55 130.5t146 55.5q43 0 83 -16t71 -39.5t61 -46.5t65.5 -39t71.5 -16q64 0 97.5 32.5t33.5 79.5l86 -10q-3 -76 -54 -131t-146 -55 q-43 0 -83 16t-71 39t-61 45.5t-66 38.5t-72 16q-62 0 -95.5 -33.5t-33.5 -78.5z" />
<glyph unicode="&#xd6;" horiz-adv-x="1783" d="M184 727q0 152 56 289.5t152 238.5t231.5 160.5t287.5 59.5t288 -59.5t232.5 -160.5t152.5 -238.5t56 -289.5q0 -203 -95 -374t-263 -272t-371 -101t-370.5 101t-262 272t-94.5 374zM283 727q0 -131 49.5 -251.5t133 -208.5t200 -140.5t245.5 -52.5t246 52.5t201 140.5 t133 208.5t49 251.5t-49 251.5t-133 208.5t-201 140.5t-246 52.5t-245.5 -52.5t-200 -140.5t-133 -208.5t-49.5 -251.5zM690 1810q0 31 21.5 52.5t50.5 21.5q31 0 52.5 -21.5t21.5 -52.5q0 -29 -21.5 -50t-52.5 -21q-29 0 -50.5 21t-21.5 50zM987 1810q0 31 21.5 52.5 t50.5 21.5q31 0 52.5 -21.5t21.5 -52.5q0 -29 -21.5 -50t-52.5 -21q-29 0 -50.5 21t-21.5 50z" />
<glyph unicode="&#xd7;" horiz-adv-x="940" d="M199 387l204 205l-204 203l65 65l205 -203l205 205l65 -65l-204 -205l204 -207l-65 -66l-205 207l-205 -204z" />
<glyph unicode="&#xd8;" horiz-adv-x="1783" d="M184 727q0 152 56 289.5t152 238.5t231.5 160.5t287.5 59.5q240 0 426 -140l152 201h61l-174 -229q123 -106 193.5 -257.5t70.5 -322.5q0 -203 -95 -374t-263 -272t-371 -101q-239 0 -430 141l-153 -203h-60l176 234q-123 104 -191.5 254.5t-68.5 320.5zM283 727 q0 -145 59 -275.5t162 -222.5l774 1028q-165 123 -367 123q-129 0 -245.5 -52.5t-200 -140.5t-133 -208.5t-49.5 -251.5zM541 201q165 -127 370 -127q129 0 246 52.5t201 140.5t133 208.5t49 251.5q0 147 -59 277.5t-164 222.5z" />
<glyph unicode="&#xd9;" horiz-adv-x="1366" d="M160 571v883h98v-883q0 -129 33 -226t94 -155.5t141 -87t179 -28.5q98 0 177.5 28.5t140 87t93.5 155.5t33 226v883h98v-883q0 -293 -145.5 -442t-396.5 -149q-252 0 -398.5 149t-146.5 442zM455 1958h114l176 -283h-83z" />
<glyph unicode="&#xda;" horiz-adv-x="1366" d="M160 571v883h98v-883q0 -129 33 -226t94 -155.5t141 -87t179 -28.5q98 0 177.5 28.5t140 87t93.5 155.5t33 226v883h98v-883q0 -293 -145.5 -442t-396.5 -149q-252 0 -398.5 149t-146.5 442zM662 1675l176 283h114l-207 -283h-83z" />
<glyph unicode="&#xdb;" horiz-adv-x="1366" d="M160 571v883h98v-883q0 -129 33 -226t94 -155.5t141 -87t179 -28.5q98 0 177.5 28.5t140 87t93.5 155.5t33 226v883h98v-883q0 -293 -145.5 -442t-396.5 -149q-252 0 -398.5 149t-146.5 442zM446 1675l213 283h91l213 -283h-99l-159 223l-160 -223h-99z" />
<glyph unicode="&#xdc;" horiz-adv-x="1366" d="M160 571v883h98v-883q0 -129 33 -226t94 -155.5t141 -87t179 -28.5q98 0 177.5 28.5t140 87t93.5 155.5t33 226v883h98v-883q0 -293 -145.5 -442t-396.5 -149q-252 0 -398.5 149t-146.5 442zM483 1810q0 31 21.5 52.5t50.5 21.5q31 0 52.5 -21.5t21.5 -52.5 q0 -29 -21.5 -50t-52.5 -21q-29 0 -50.5 21t-21.5 50zM780 1810q0 31 21.5 52.5t50.5 21.5q31 0 52.5 -21.5t21.5 -52.5q0 -29 -21.5 -50t-52.5 -21q-29 0 -50.5 21t-21.5 50z" />
<glyph unicode="&#xdd;" horiz-adv-x="1366" d="M143 1454h113l446 -723l449 723h113l-512 -827v-627h-99v627zM662 1675l176 283h114l-207 -283h-83z" />
<glyph unicode="&#xde;" horiz-adv-x="1155" d="M143 0v1470h99v-278h323q107 0 197.5 -29.5t158.5 -85.5t106 -145t38 -201q0 -149 -67 -254.5t-178 -155t-255 -49.5h-323v-272h-99zM242 367h323q182 0 292 91.5t110 272.5q0 182 -110 274.5t-292 92.5h-323v-731z" />
<glyph unicode="&#xdf;" horiz-adv-x="1261" d="M184 0v989q0 135 42 242.5t134.5 175.5t223.5 68q88 0 160 -34t117 -88.5t69 -120t24 -132.5q0 -71 -31 -147t-96 -124q130 -48 210.5 -155.5t80.5 -259.5q0 -84 -24.5 -158t-73 -133.5t-128.5 -94t-183 -34.5q-158 0 -283 88v100q127 -94 272 -94q82 0 145 26.5t101 73 t57 104.5t19 126q0 112 -52.5 194t-137 122t-187.5 40h-55v88h55q51 0 90.5 16t62 40.5t36.5 56.5t19 60.5t5 56.5q0 115 -73.5 201.5t-200.5 86.5q-141 0 -220 -108t-79 -283v-989h-99z" />
<glyph unicode="&#xe0;" horiz-adv-x="1185" d="M184 281q0 64 25.5 115.5t66 84t94.5 54.5t108 31t110 9q117 0 213.5 -34.5t142.5 -69.5v131q0 87 -10.5 147t-40 114t-89.5 81t-151 27q-114 0 -226.5 -44.5t-178.5 -90.5v90q221 131 420 131q94 0 163 -25.5t109 -65.5t63.5 -102t31 -122.5t7.5 -139.5v-602h-96l-2 51 v31q-48 -34 -144 -68t-212 -34q-70 0 -138 16.5t-129.5 50.5t-99 94.5t-37.5 139.5zM283 281q0 -61 31 -107t81.5 -71t103.5 -36.5t107 -11.5q107 0 204 37t134 72v227q-37 35 -134 72t-204 37q-55 0 -107.5 -10.5t-103 -34t-81.5 -68.5t-31 -106zM381 1540h115l176 -283 h-84z" />
<glyph unicode="&#xe1;" horiz-adv-x="1185" d="M184 281q0 64 25.5 115.5t66 84t94.5 54.5t108 31t110 9q117 0 213.5 -34.5t142.5 -69.5v131q0 87 -10.5 147t-40 114t-89.5 81t-151 27q-114 0 -226.5 -44.5t-178.5 -90.5v90q221 131 420 131q94 0 163 -25.5t109 -65.5t63.5 -102t31 -122.5t7.5 -139.5v-602h-96l-2 51 v31q-48 -34 -144 -68t-212 -34q-70 0 -138 16.5t-129.5 50.5t-99 94.5t-37.5 139.5zM283 281q0 -61 31 -107t81.5 -71t103.5 -36.5t107 -11.5q107 0 204 37t134 72v227q-37 35 -134 72t-204 37q-55 0 -107.5 -10.5t-103 -34t-81.5 -68.5t-31 -106zM590 1257l176 283h115 l-207 -283h-84z" />
<glyph unicode="&#xe2;" horiz-adv-x="1185" d="M184 281q0 64 25.5 115.5t66 84t94.5 54.5t108 31t110 9q117 0 213.5 -34.5t142.5 -69.5v131q0 87 -10.5 147t-40 114t-89.5 81t-151 27q-114 0 -226.5 -44.5t-178.5 -90.5v90q221 131 420 131q94 0 163 -25.5t109 -65.5t63.5 -102t31 -122.5t7.5 -139.5v-602h-96l-2 51 v31q-48 -34 -144 -68t-212 -34q-70 0 -138 16.5t-129.5 50.5t-99 94.5t-37.5 139.5zM283 281q0 -61 31 -107t81.5 -71t103.5 -36.5t107 -11.5q107 0 204 37t134 72v227q-37 35 -134 72t-204 37q-55 0 -107.5 -10.5t-103 -34t-81.5 -68.5t-31 -106zM375 1257l213 283h90 l213 -283h-98l-160 224l-160 -224h-98z" />
<glyph unicode="&#xe3;" horiz-adv-x="1185" d="M184 281q0 64 25.5 115.5t66 84t94.5 54.5t108 31t110 9q117 0 213.5 -34.5t142.5 -69.5v131q0 87 -10.5 147t-40 114t-89.5 81t-151 27q-114 0 -226.5 -44.5t-178.5 -90.5v90q221 131 420 131q94 0 163 -25.5t109 -65.5t63.5 -102t31 -122.5t7.5 -139.5v-602h-96l-2 51 v31q-48 -34 -144 -68t-212 -34q-70 0 -138 16.5t-129.5 50.5t-99 94.5t-37.5 139.5zM246 1333q3 76 54.5 131.5t145.5 55.5q43 0 83 -16.5t71 -39.5t61 -46t66 -39.5t72 -16.5q64 0 97.5 33t33.5 80l86 -11q-3 -76 -54.5 -131t-146.5 -55q-52 0 -102 24.5t-83 53.5t-78 53.5 t-89 24.5q-62 0 -95.5 -34t-33.5 -79zM283 281q0 -61 31 -107t81.5 -71t103.5 -36.5t107 -11.5q107 0 204 37t134 72v227q-37 35 -134 72t-204 37q-55 0 -107.5 -10.5t-103 -34t-81.5 -68.5t-31 -106z" />
<glyph unicode="&#xe4;" horiz-adv-x="1185" d="M184 281q0 64 25.5 115.5t66 84t94.5 54.5t108 31t110 9q117 0 213.5 -34.5t142.5 -69.5v131q0 87 -10.5 147t-40 114t-89.5 81t-151 27q-114 0 -226.5 -44.5t-178.5 -90.5v90q221 131 420 131q94 0 163 -25.5t109 -65.5t63.5 -102t31 -122.5t7.5 -139.5v-602h-96l-2 51 v31q-48 -34 -144 -68t-212 -34q-70 0 -138 16.5t-129.5 50.5t-99 94.5t-37.5 139.5zM283 281q0 -61 31 -107t81.5 -71t103.5 -36.5t107 -11.5q107 0 204 37t134 72v227q-37 35 -134 72t-204 37q-55 0 -107.5 -10.5t-103 -34t-81.5 -68.5t-31 -106zM412 1393q0 31 21 52 t50 21q31 0 52.5 -21t21.5 -52q0 -29 -21.5 -50.5t-52.5 -21.5q-29 0 -50 21.5t-21 50.5zM709 1393q0 31 21 52t50 21q31 0 52.5 -21t21.5 -52q0 -29 -21.5 -50.5t-52.5 -21.5q-29 0 -50 21.5t-21 50.5z" />
<glyph unicode="&#xe5;" horiz-adv-x="1185" d="M184 281q0 64 25.5 115.5t66 84t94.5 54.5t108 31t110 9q117 0 213.5 -34.5t142.5 -69.5v131q0 87 -10.5 147t-40 114t-89.5 81t-151 27q-114 0 -226.5 -44.5t-178.5 -90.5v90q221 131 420 131q94 0 163 -25.5t109 -65.5t63.5 -102t31 -122.5t7.5 -139.5v-602h-96l-2 51 v31q-48 -34 -144 -68t-212 -34q-70 0 -138 16.5t-129.5 50.5t-99 94.5t-37.5 139.5zM283 281q0 -61 31 -107t81.5 -71t103.5 -36.5t107 -11.5q107 0 204 37t134 72v227q-37 35 -134 72t-204 37q-55 0 -107.5 -10.5t-103 -34t-81.5 -68.5t-31 -106zM489 1417q0 60 42 102 t102 42q59 0 100 -42t41 -102t-41 -101.5t-100 -41.5q-60 0 -102 41.5t-42 101.5zM549 1417q0 -34 24.5 -58t59.5 -24q34 0 58 24t24 58t-24 58t-58 24q-35 0 -59.5 -24t-24.5 -58z" />
<glyph unicode="&#xe6;" horiz-adv-x="2060" d="M184 281q0 64 25.5 115.5t66 84t94.5 54.5t108 31t110 9q117 0 213.5 -34.5t142.5 -69.5v131q0 87 -10.5 147t-40 114t-89.5 81t-151 27q-114 0 -226.5 -44.5t-178.5 -90.5v90q221 131 420 131q160 0 242.5 -66.5t111.5 -185.5q64 118 176 185t252 67q110 0 200 -44 t147.5 -119.5t88.5 -174t31 -209.5v-29h-862q10 -200 128 -306.5t304 -106.5q200 0 375 135v-88q-64 -56 -167 -95.5t-220 -39.5q-138 0 -252 58t-181 163v-201h-96l-2 51v31q-48 -34 -144 -68t-212 -34q-70 0 -138 16.5t-129.5 50.5t-99 94.5t-37.5 139.5zM283 281 q0 -61 31 -107t81.5 -71t103.5 -36.5t107 -11.5q107 0 204 37t134 72v227q-37 35 -134 72t-204 37q-55 0 -107.5 -10.5t-103 -34t-81.5 -68.5t-31 -106zM1055 561h766q-14 178 -109.5 292t-259.5 114q-167 0 -277 -111.5t-120 -294.5z" />
<glyph unicode="&#xe7;" horiz-adv-x="1208" d="M184 520q0 144 72 268t196.5 196.5t272.5 72.5q204 0 340 -142v-102q-143 150 -330 150q-183 0 -315.5 -130t-132.5 -313q0 -122 61 -225t164 -162t223 -59q188 0 330 149v-102q-135 -141 -340 -141h-6l-37 -80q71 -3 117.5 -35t46.5 -88q0 -152 -303 -152l22 62 q213 0 213 88q0 66 -125 69l-57 -2l49 144q-196 28 -328.5 179.5t-132.5 354.5z" />
<glyph unicode="&#xe8;" horiz-adv-x="1290" d="M184 524q0 229 139 381t357 152q110 0 200 -44t147.5 -119.5t88.5 -174t31 -209.5v-29h-862q10 -200 128 -306.5t304 -106.5q200 0 375 135v-88q-64 -56 -167 -95.5t-220 -39.5q-111 0 -206.5 37.5t-165.5 106.5t-109.5 172t-39.5 228zM285 561h764q-13 178 -108.5 292 t-258.5 114q-168 0 -277.5 -111.5t-119.5 -294.5zM428 1540h115l176 -283h-84z" />
<glyph unicode="&#xe9;" horiz-adv-x="1290" d="M184 524q0 229 139 381t357 152q110 0 200 -44t147.5 -119.5t88.5 -174t31 -209.5v-29h-862q10 -200 128 -306.5t304 -106.5q200 0 375 135v-88q-64 -56 -167 -95.5t-220 -39.5q-111 0 -206.5 37.5t-165.5 106.5t-109.5 172t-39.5 228zM285 561h764q-13 178 -108.5 292 t-258.5 114q-168 0 -277.5 -111.5t-119.5 -294.5zM637 1257l176 283h115l-207 -283h-84z" />
<glyph unicode="&#xea;" horiz-adv-x="1290" d="M184 524q0 229 139 381t357 152q110 0 200 -44t147.5 -119.5t88.5 -174t31 -209.5v-29h-862q10 -200 128 -306.5t304 -106.5q200 0 375 135v-88q-64 -56 -167 -95.5t-220 -39.5q-111 0 -206.5 37.5t-165.5 106.5t-109.5 172t-39.5 228zM285 561h764q-13 178 -108.5 292 t-258.5 114q-168 0 -277.5 -111.5t-119.5 -294.5zM422 1257l213 283h90l213 -283h-98l-160 224l-160 -224h-98z" />
<glyph unicode="&#xeb;" horiz-adv-x="1290" d="M184 524q0 229 139 381t357 152q110 0 200 -44t147.5 -119.5t88.5 -174t31 -209.5v-29h-862q10 -200 128 -306.5t304 -106.5q200 0 375 135v-88q-64 -56 -167 -95.5t-220 -39.5q-111 0 -206.5 37.5t-165.5 106.5t-109.5 172t-39.5 228zM285 561h764q-13 178 -108.5 292 t-258.5 114q-168 0 -277.5 -111.5t-119.5 -294.5zM457 1393q0 31 21 52t50 21q31 0 52.5 -21t21.5 -52q0 -29 -21.5 -50.5t-52.5 -21.5q-29 0 -50 21.5t-21 50.5zM754 1393q0 31 21 52t50 21q31 0 52.5 -21t21.5 -52q0 -29 -21.5 -50.5t-52.5 -21.5q-29 0 -50 21.5t-21 50.5 z" />
<glyph unicode="&#xec;" horiz-adv-x="413" d="M-27 1540h115l176 -283h-84zM123 946v90h168v-1036h-98v942z" />
<glyph unicode="&#xed;" horiz-adv-x="413" d="M123 946v90h168v-1036h-98v942zM182 1257l176 283h115l-207 -283h-84z" />
<glyph unicode="&#xee;" horiz-adv-x="413" d="M-33 1257l213 283h90l213 -283h-98l-160 224l-159 -224h-99zM123 946v90h168v-1036h-98v942z" />
<glyph unicode="&#xef;" horiz-adv-x="413" d="M4 1311q0 31 21 52t51 21q31 0 52.5 -21t21.5 -52q0 -29 -21.5 -50.5t-52.5 -21.5q-29 0 -50.5 21.5t-21.5 50.5zM123 946v90h168v-1036h-98v942zM301 1311q0 31 21.5 52t50.5 21q31 0 52 -21t21 -52q0 -29 -21 -50.5t-52 -21.5q-29 0 -50.5 21.5t-21.5 50.5z" />
<glyph unicode="&#xf0;" horiz-adv-x="1318" d="M184 467q0 131 66 243t180 178t248 66q96 0 184 -35t156 -96q-86 251 -303 398l-252 -191v62l207 155q-133 79 -293 113v94q209 -37 377 -143l215 162v-60l-174 -131q176 -127 278.5 -330t102.5 -473q0 -138 -66 -253t-180.5 -180.5t-251.5 -65.5q-205 0 -349.5 143 t-144.5 344zM283 467q0 -163 115.5 -278t279.5 -115q165 0 281 115t116 278v20h-6q0 12 -1 33t-1 31q-30 134 -138 221.5t-251 87.5q-164 0 -279.5 -115.5t-115.5 -277.5z" />
<glyph unicode="&#xf1;" horiz-adv-x="1226" d="M184 0v1036h92l7 -223q67 109 173.5 176.5t254.5 67.5q177 0 283 -118t106 -339v-600h-99v569q0 198 -87 296t-230 98q-86 0 -156.5 -29.5t-113.5 -73.5t-73.5 -100t-43 -103.5t-14.5 -89.5v-567h-99zM252 1333q3 75 55 131t146 56q43 0 83 -16.5t71 -39.5t61 -46 t65.5 -39.5t71.5 -16.5q64 0 97.5 33t33.5 80l86 -11q-3 -76 -54.5 -131t-146.5 -55q-52 0 -102 24.5t-83 53.5t-78 53.5t-89 24.5q-62 0 -95.5 -34t-33.5 -79z" />
<glyph unicode="&#xf2;" horiz-adv-x="1417" d="M184 520q0 145 72.5 268.5t198.5 196t276 72.5q149 0 274 -72.5t197 -196t72 -268.5q0 -147 -72 -271.5t-197 -196.5t-274 -72q-112 0 -213.5 42.5t-174.5 115t-116 172.5t-43 210zM283 520q0 -121 60 -223.5t163 -162.5t225 -60q184 0 314.5 130.5t130.5 315.5 q0 182 -130.5 312.5t-314.5 130.5q-185 0 -316.5 -130.5t-131.5 -312.5zM481 1540h115l176 -283h-84z" />
<glyph unicode="&#xf3;" horiz-adv-x="1417" d="M184 520q0 145 72.5 268.5t198.5 196t276 72.5q149 0 274 -72.5t197 -196t72 -268.5q0 -147 -72 -271.5t-197 -196.5t-274 -72q-112 0 -213.5 42.5t-174.5 115t-116 172.5t-43 210zM283 520q0 -121 60 -223.5t163 -162.5t225 -60q184 0 314.5 130.5t130.5 315.5 q0 182 -130.5 312.5t-314.5 130.5q-185 0 -316.5 -130.5t-131.5 -312.5zM690 1257l176 283h115l-207 -283h-84z" />
<glyph unicode="&#xf4;" horiz-adv-x="1417" d="M184 520q0 145 72.5 268.5t198.5 196t276 72.5q149 0 274 -72.5t197 -196t72 -268.5q0 -147 -72 -271.5t-197 -196.5t-274 -72q-112 0 -213.5 42.5t-174.5 115t-116 172.5t-43 210zM283 520q0 -121 60 -223.5t163 -162.5t225 -60q184 0 314.5 130.5t130.5 315.5 q0 182 -130.5 312.5t-314.5 130.5q-185 0 -316.5 -130.5t-131.5 -312.5zM475 1257l213 283h90l213 -283h-98l-160 224l-160 -224h-98z" />
<glyph unicode="&#xf5;" horiz-adv-x="1417" d="M184 520q0 145 72.5 268.5t198.5 196t276 72.5q149 0 274 -72.5t197 -196t72 -268.5q0 -147 -72 -271.5t-197 -196.5t-274 -72q-112 0 -213.5 42.5t-174.5 115t-116 172.5t-43 210zM283 520q0 -121 60 -223.5t163 -162.5t225 -60q184 0 314.5 130.5t130.5 315.5 q0 182 -130.5 312.5t-314.5 130.5q-185 0 -316.5 -130.5t-131.5 -312.5zM346 1333q3 75 55 131t146 56q43 0 83 -16.5t71 -39.5t61 -46t65.5 -39.5t71.5 -16.5q64 0 97.5 33t33.5 80l86 -11q-3 -76 -54.5 -131t-146.5 -55q-52 0 -102 24.5t-83 53.5t-78 53.5t-89 24.5 q-62 0 -95.5 -34t-33.5 -79z" />
<glyph unicode="&#xf6;" horiz-adv-x="1417" d="M184 520q0 145 72.5 268.5t198.5 196t276 72.5q149 0 274 -72.5t197 -196t72 -268.5q0 -147 -72 -271.5t-197 -196.5t-274 -72q-112 0 -213.5 42.5t-174.5 115t-116 172.5t-43 210zM283 520q0 -121 60 -223.5t163 -162.5t225 -60q184 0 314.5 130.5t130.5 315.5 q0 182 -130.5 312.5t-314.5 130.5q-185 0 -316.5 -130.5t-131.5 -312.5zM510 1393q0 31 21 52t51 21q31 0 52 -21t21 -52q0 -29 -21.5 -50.5t-51.5 -21.5q-29 0 -50.5 21.5t-21.5 50.5zM807 1393q0 31 21.5 52t50.5 21q31 0 52 -21t21 -52q0 -29 -21 -50.5t-52 -21.5 q-29 0 -50.5 21.5t-21.5 50.5z" />
<glyph unicode="&#xf7;" horiz-adv-x="1077" d="M213 543v94h672v-94h-672zM477 336q0 31 20.5 51.5t51.5 20.5t51.5 -20.5t20.5 -51.5t-20.5 -52.5t-51.5 -21.5t-51.5 21.5t-20.5 52.5zM477 821q0 31 20.5 52.5t51.5 21.5t51.5 -21.5t20.5 -52.5t-20.5 -51t-51.5 -20t-51.5 20t-20.5 51z" />
<glyph unicode="&#xf8;" horiz-adv-x="1417" d="M184 520q0 145 72.5 268.5t198.5 196t276 72.5q166 0 305 -92l68 88h61l-90 -117q94 -76 146.5 -184.5t52.5 -231.5q0 -147 -72 -271.5t-197 -196.5t-274 -72q-169 0 -309 94l-68 -90h-59l88 118q-92 75 -145.5 184.5t-53.5 233.5zM283 520q0 -101 42 -189t117 -151 l537 707q-116 76 -248 76q-185 0 -316.5 -130.5t-131.5 -312.5zM481 150q116 -76 250 -76q184 0 313.5 130.5t129.5 315.5q0 98 -42 186.5t-114 151.5z" />
<glyph unicode="&#xf9;" horiz-adv-x="1226" d="M168 436v600h98v-569q0 -198 87.5 -295.5t230.5 -97.5q89 0 161 31t115 77t72.5 103.5t41 106.5t11.5 89v555h98v-1036h-94l-4 223q-151 -243 -428 -243q-177 0 -283 117.5t-106 338.5zM393 1540h115l176 -283h-84z" />
<glyph unicode="&#xfa;" horiz-adv-x="1226" d="M168 436v600h98v-569q0 -198 87.5 -295.5t230.5 -97.5q89 0 161 31t115 77t72.5 103.5t41 106.5t11.5 89v555h98v-1036h-94l-4 223q-151 -243 -428 -243q-177 0 -283 117.5t-106 338.5zM602 1257l176 283h115l-207 -283h-84z" />
<glyph unicode="&#xfb;" horiz-adv-x="1226" d="M168 436v600h98v-569q0 -198 87.5 -295.5t230.5 -97.5q89 0 161 31t115 77t72.5 103.5t41 106.5t11.5 89v555h98v-1036h-94l-4 223q-151 -243 -428 -243q-177 0 -283 117.5t-106 338.5zM387 1257l213 283h90l213 -283h-98l-160 224l-160 -224h-98z" />
<glyph unicode="&#xfc;" horiz-adv-x="1226" d="M168 436v600h98v-569q0 -198 87.5 -295.5t230.5 -97.5q89 0 161 31t115 77t72.5 103.5t41 106.5t11.5 89v555h98v-1036h-94l-4 223q-151 -243 -428 -243q-177 0 -283 117.5t-106 338.5zM422 1393q0 31 21 52t51 21q31 0 52 -21t21 -52q0 -29 -21.5 -50.5t-51.5 -21.5 q-29 0 -50.5 21.5t-21.5 50.5zM719 1393q0 31 21.5 52t50.5 21q31 0 52 -21t21 -52q0 -29 -21 -50.5t-52 -21.5q-29 0 -50.5 21.5t-21.5 50.5z" />
<glyph unicode="&#xfd;" horiz-adv-x="1306" d="M164 1036h106l408 -911l399 911h107l-660 -1507h-106l207 473zM639 1257l176 283h115l-207 -283h-84z" />
<glyph unicode="&#xfe;" horiz-adv-x="1417" d="M184 -471v2007h99v-774q58 132 181 213.5t275 81.5q109 0 208.5 -42.5t171 -115t113.5 -171.5t42 -208q0 -147 -71.5 -271.5t-194.5 -196.5t-269 -72q-152 0 -275 81t-181 215v-747h-99zM279 520q0 -185 130 -315.5t314 -130.5q122 0 225 60t163 162.5t60 223.5 q0 182 -131.5 312.5t-316.5 130.5q-184 0 -314 -130.5t-130 -312.5z" />
<glyph unicode="&#xff;" horiz-adv-x="1306" d="M164 1036h106l408 -911l399 911h107l-660 -1507h-106l207 473zM461 1393q0 31 21 52t50 21q31 0 52.5 -21t21.5 -52q0 -29 -21.5 -50.5t-52.5 -21.5q-29 0 -50 21.5t-21 50.5zM758 1393q0 31 21 52t50 21q31 0 52.5 -21t21.5 -52q0 -29 -21.5 -50.5t-52.5 -21.5 q-29 0 -50 21.5t-21 50.5z" />
<glyph unicode="&#x100;" horiz-adv-x="1443" d="M164 0l524 1454h109l524 -1454h-102l-144 397h-665l-144 -397h-102zM444 492h598l-299 829zM535 1772v94h415v-94h-415z" />
<glyph unicode="&#x101;" horiz-adv-x="1185" d="M184 281q0 64 25.5 115.5t66 84t94.5 54.5t108 31t110 9q117 0 213.5 -34.5t142.5 -69.5v131q0 87 -10.5 147t-40 114t-89.5 81t-151 27q-114 0 -226.5 -44.5t-178.5 -90.5v90q221 131 420 131q94 0 163 -25.5t109 -65.5t63.5 -102t31 -122.5t7.5 -139.5v-602h-96l-2 51 v31q-48 -34 -144 -68t-212 -34q-70 0 -138 16.5t-129.5 50.5t-99 94.5t-37.5 139.5zM283 281q0 -61 31 -107t81.5 -71t103.5 -36.5t107 -11.5q107 0 204 37t134 72v227q-37 35 -134 72t-204 37q-55 0 -107.5 -10.5t-103 -34t-81.5 -68.5t-31 -106zM424 1354v94h416v-94h-416 z" />
<glyph unicode="&#x102;" horiz-adv-x="1443" d="M164 0l524 1454h109l524 -1454h-102l-144 397h-665l-144 -397h-102zM436 1958h84q0 -35 12.5 -70t37.5 -66.5t70 -51t103 -19.5t103.5 19.5t71 51t38.5 66.5t13 70h82q0 -115 -86 -199t-222 -84t-221.5 84t-85.5 199zM444 492h598l-299 829z" />
<glyph unicode="&#x103;" horiz-adv-x="1185" d="M184 281q0 64 25.5 115.5t66 84t94.5 54.5t108 31t110 9q117 0 213.5 -34.5t142.5 -69.5v131q0 87 -10.5 147t-40 114t-89.5 81t-151 27q-114 0 -226.5 -44.5t-178.5 -90.5v90q221 131 420 131q94 0 163 -25.5t109 -65.5t63.5 -102t31 -122.5t7.5 -139.5v-602h-96l-2 51 v31q-48 -34 -144 -68t-212 -34q-70 0 -138 16.5t-129.5 50.5t-99 94.5t-37.5 139.5zM283 281q0 -61 31 -107t81.5 -71t103.5 -36.5t107 -11.5q107 0 204 37t134 72v227q-37 35 -134 72t-204 37q-55 0 -107.5 -10.5t-103 -34t-81.5 -68.5t-31 -106zM324 1540h84 q0 -35 12.5 -70t37.5 -66.5t70 -51t103 -19.5t103 19.5t70.5 51t38.5 66.5t13 70h82q0 -115 -85.5 -199t-221.5 -84t-221.5 84t-85.5 199z" />
<glyph unicode="&#x104;" horiz-adv-x="1443" d="M164 0l524 1454h109l524 -1454h-10q-32 -32 -50.5 -64t-22 -57.5t3.5 -46t24.5 -32t42.5 -11.5q69 0 139 55v-88q-61 -61 -154 -61q-50 0 -86 27.5t-48.5 70t4.5 99t65 108.5h-10l-144 397h-665l-144 -397h-102zM444 492h598l-299 829z" />
<glyph unicode="&#x105;" horiz-adv-x="1185" d="M184 281q0 64 25.5 115.5t66 84t94.5 54.5t108 31t110 9q117 0 213.5 -34.5t142.5 -69.5v131q0 87 -10.5 147t-40 114t-89.5 81t-151 27q-114 0 -226.5 -44.5t-178.5 -90.5v90q221 131 420 131q94 0 163 -25.5t109 -65.5t63.5 -102t31 -122.5t7.5 -139.5v-602h-8 q-32 -32 -50.5 -64t-22 -57.5t3.5 -46t24.5 -32t42.5 -11.5q69 0 139 55v-88q-61 -61 -153 -61q-50 0 -86 27.5t-48.5 70t4 99t64.5 108.5h-6l-2 51v31q-48 -34 -144 -68t-212 -34q-70 0 -138 16.5t-129.5 50.5t-99 94.5t-37.5 139.5zM283 281q0 -61 31 -107t81.5 -71 t103.5 -36.5t107 -11.5q107 0 204 37t134 72v227q-37 35 -134 72t-204 37q-55 0 -107.5 -10.5t-103 -34t-81.5 -68.5t-31 -106z" />
<glyph unicode="&#x106;" horiz-adv-x="1482" d="M184 727q0 152 56 290t151.5 238.5t231 160t286.5 59.5q266 0 430 -148v-104q-174 157 -421 157q-129 0 -246.5 -51.5t-202.5 -139t-135.5 -208.5t-50.5 -254t50.5 -254t135.5 -208.5t202.5 -139t246.5 -51.5q246 0 421 157v-104q-163 -147 -430 -147q-202 0 -369 100.5 t-261.5 271.5t-94.5 375zM856 1675l176 283h115l-207 -283h-84z" />
<glyph unicode="&#x107;" horiz-adv-x="1208" d="M184 520q0 144 72 268t196.5 196.5t272.5 72.5q204 0 340 -142v-102q-143 150 -330 150q-183 0 -315.5 -130t-132.5 -313q0 -122 61 -225t164 -162t223 -59q188 0 330 149v-102q-135 -141 -340 -141q-148 0 -272.5 72.5t-196.5 197t-72 270.5zM674 1257l176 283h115 l-207 -283h-84z" />
<glyph unicode="&#x10a;" horiz-adv-x="1482" d="M184 727q0 152 56 290t151.5 238.5t231 160t286.5 59.5q266 0 430 -148v-104q-174 157 -421 157q-129 0 -246.5 -51.5t-202.5 -139t-135.5 -208.5t-50.5 -254t50.5 -254t135.5 -208.5t202.5 -139t246.5 -51.5q246 0 421 157v-104q-163 -147 -430 -147q-202 0 -369 100.5 t-261.5 271.5t-94.5 375zM825 1810q0 31 21.5 52.5t50.5 21.5q31 0 52.5 -21.5t21.5 -52.5q0 -29 -21.5 -50t-52.5 -21q-29 0 -50.5 21t-21.5 50z" />
<glyph unicode="&#x10b;" horiz-adv-x="1208" d="M184 520q0 144 72 268t196.5 196.5t272.5 72.5q204 0 340 -142v-102q-143 150 -330 150q-183 0 -315.5 -130t-132.5 -313q0 -122 61 -225t164 -162t223 -59q188 0 330 149v-102q-135 -141 -340 -141q-148 0 -272.5 72.5t-196.5 197t-72 270.5zM643 1393q0 31 21.5 52 t50.5 21q31 0 52 -21t21 -52q0 -29 -21 -50.5t-52 -21.5q-29 0 -50.5 21.5t-21.5 50.5z" />
<glyph unicode="&#x10c;" horiz-adv-x="1482" d="M184 727q0 152 56 290t151.5 238.5t231 160t286.5 59.5q266 0 430 -148v-104q-174 157 -421 157q-129 0 -246.5 -51.5t-202.5 -139t-135.5 -208.5t-50.5 -254t50.5 -254t135.5 -208.5t202.5 -139t246.5 -51.5q246 0 421 157v-104q-163 -147 -430 -147q-202 0 -369 100.5 t-261.5 271.5t-94.5 375zM635 1958h98l160 -223l160 223h98l-213 -283h-90z" />
<glyph unicode="&#x10d;" horiz-adv-x="1208" d="M184 520q0 144 72 268t196.5 196.5t272.5 72.5q204 0 340 -142v-102q-143 150 -330 150q-183 0 -315.5 -130t-132.5 -313q0 -122 61 -225t164 -162t223 -59q188 0 330 149v-102q-135 -141 -340 -141q-148 0 -272.5 72.5t-196.5 197t-72 270.5zM453 1540h98l160 -223 l159 223h99l-213 -283h-90z" />
<glyph unicode="&#x10e;" horiz-adv-x="1396" d="M160 0v1454h438q152 0 280.5 -56.5t215.5 -154t135.5 -231t48.5 -285.5t-48.5 -285.5t-135.5 -231t-215.5 -154t-280.5 -56.5h-438zM258 94h340q169 0 302.5 81.5t206.5 225.5t73 326t-73 326t-206.5 225.5t-302.5 81.5h-340v-1266zM358 1958h99l159 -223l160 223h98 l-212 -283h-91z" />
<glyph unicode="&#x10f;" horiz-adv-x="1540" d="M184 520q0 109 42 208t113.5 171.5t171 115t208.5 42.5q156 0 281 -83t182 -216v778h100v-1536h-96l-4 281q-56 -134 -181.5 -217.5t-281.5 -83.5q-146 0 -269 72t-194.5 196.5t-71.5 271.5zM283 520q0 -121 60 -223.5t163 -162.5t225 -60q184 0 314.5 130.5t130.5 315.5 q0 182 -130.5 312.5t-314.5 130.5q-185 0 -316.5 -130.5t-131.5 -312.5zM1366 1126l74 344h116l-106 -344h-84z" />
<glyph unicode="&#x110;" horiz-adv-x="1396" d="M-59 680v94h219v680h438q152 0 280.5 -56.5t215.5 -154t135.5 -231t48.5 -285.5t-48.5 -285.5t-135.5 -231t-215.5 -154t-280.5 -56.5h-438v680h-219zM258 94h340q169 0 302.5 81.5t206.5 225.5t73 326t-73 326t-206.5 225.5t-302.5 81.5h-340v-586h354v-94h-354v-586z " />
<glyph unicode="&#x111;" horiz-adv-x="1425" d="M184 520q0 109 42 208t113.5 171.5t171 115t208.5 42.5q156 0 281 -83t182 -216v434h-449v94h449v250h100v-250h123v-94h-123v-1192h-96l-4 281q-56 -134 -181.5 -217.5t-281.5 -83.5q-146 0 -269 72t-194.5 196.5t-71.5 271.5zM283 520q0 -121 60 -223.5t163 -162.5 t225 -60q184 0 314.5 130.5t130.5 315.5q0 182 -130.5 312.5t-314.5 130.5q-185 0 -316.5 -130.5t-131.5 -312.5z" />
<glyph unicode="&#x112;" horiz-adv-x="1021" d="M160 0v1454h743v-94h-645v-551h494v-94h-494v-621h645v-94h-743zM322 1772v94h415v-94h-415z" />
<glyph unicode="&#x113;" horiz-adv-x="1290" d="M184 524q0 229 139 381t357 152q110 0 200 -44t147.5 -119.5t88.5 -174t31 -209.5v-29h-862q10 -200 128 -306.5t304 -106.5q200 0 375 135v-88q-64 -56 -167 -95.5t-220 -39.5q-111 0 -206.5 37.5t-165.5 106.5t-109.5 172t-39.5 228zM285 561h764q-13 178 -108.5 292 t-258.5 114q-168 0 -277.5 -111.5t-119.5 -294.5zM471 1354v94h416v-94h-416z" />
<glyph unicode="&#x116;" horiz-adv-x="1021" d="M160 0v1454h743v-94h-645v-551h494v-94h-494v-621h645v-94h-743zM457 1810q0 31 21 52.5t50 21.5q31 0 52.5 -21.5t21.5 -52.5q0 -29 -21.5 -50t-52.5 -21q-29 0 -50 21t-21 50z" />
<glyph unicode="&#x117;" horiz-adv-x="1290" d="M184 524q0 229 139 381t357 152q110 0 200 -44t147.5 -119.5t88.5 -174t31 -209.5v-29h-862q10 -200 128 -306.5t304 -106.5q200 0 375 135v-88q-64 -56 -167 -95.5t-220 -39.5q-111 0 -206.5 37.5t-165.5 106.5t-109.5 172t-39.5 228zM285 561h764q-13 178 -108.5 292 t-258.5 114q-168 0 -277.5 -111.5t-119.5 -294.5zM606 1393q0 31 21 52t51 21q31 0 52.5 -21t21.5 -52q0 -29 -21.5 -50.5t-52.5 -21.5q-29 0 -50.5 21.5t-21.5 50.5z" />
<glyph unicode="&#x118;" horiz-adv-x="1021" d="M160 0v1454h743v-94h-645v-551h494v-94h-494v-621h645v-94h-211q-32 -32 -50.5 -64t-22 -57.5t3.5 -46t24.5 -32t42.5 -11.5q69 0 139 55v-88q-61 -61 -153 -61q-50 0 -86 27.5t-48.5 70t4 99t64.5 108.5h-450z" />
<glyph unicode="&#x119;" horiz-adv-x="1290" d="M184 524q0 229 139 381t357 152q110 0 200 -44t147.5 -119.5t88.5 -174t31 -209.5v-29h-862q10 -200 128 -306.5t304 -106.5q200 0 375 135v-88q-62 -55 -162 -94.5t-215 -40.5q-41 -48 -51 -93t9 -71.5t58 -26.5q69 0 139 55v-88q-61 -61 -153 -61q-48 0 -83.5 25.5 t-49.5 65.5t-1 93.5t54 104.5q-202 22 -327.5 165.5t-125.5 374.5zM285 561h764q-13 178 -108.5 292t-258.5 114q-168 0 -277.5 -111.5t-119.5 -294.5z" />
<glyph unicode="&#x11a;" horiz-adv-x="1021" d="M160 0v1454h743v-94h-645v-551h494v-94h-494v-621h645v-94h-743zM268 1958h99l159 -223l160 223h98l-213 -283h-90z" />
<glyph unicode="&#x11b;" horiz-adv-x="1290" d="M184 524q0 229 139 381t357 152q110 0 200 -44t147.5 -119.5t88.5 -174t31 -209.5v-29h-862q10 -200 128 -306.5t304 -106.5q200 0 375 135v-88q-64 -56 -167 -95.5t-220 -39.5q-111 0 -206.5 37.5t-165.5 106.5t-109.5 172t-39.5 228zM285 561h764q-13 178 -108.5 292 t-258.5 114q-168 0 -277.5 -111.5t-119.5 -294.5zM416 1540h98l160 -223l160 223h98l-213 -283h-90z" />
<glyph unicode="&#x11e;" horiz-adv-x="1761" d="M184 727q0 152 53.5 289t147.5 238.5t230 161t292 59.5q362 0 578 -310l-76 -59q-195 274 -502 274q-175 0 -319 -88.5t-224.5 -238t-80.5 -326.5t79.5 -326.5t221.5 -238t315 -88.5q168 0 304.5 77t216.5 208t96 294h-633v97h735q0 -218 -88.5 -393t-253 -276 t-377.5 -101q-153 0 -287.5 59.5t-227.5 160.5t-146.5 238t-53.5 289zM596 1958h84q0 -35 12.5 -70t37.5 -66.5t70 -51t103 -19.5t103 19.5t70.5 51t38.5 66.5t13 70h82q0 -115 -85.5 -199t-221.5 -84t-221.5 84t-85.5 199z" />
<glyph unicode="&#x11f;" horiz-adv-x="1425" d="M184 520q0 109 42 208t113.5 171.5t171 115t208.5 42.5q156 0 281 -83t182 -216l6 278h94v-962q0 -277 -139.5 -421.5t-380.5 -144.5q-229 0 -465 140v90q30 -20 67.5 -40t98 -46t136 -42t149.5 -16q205 0 319.5 119t114.5 361v207q-56 -134 -181.5 -217.5t-281.5 -83.5 q-146 0 -269 72t-194.5 196.5t-71.5 271.5zM283 520q0 -121 60 -223.5t163 -162.5t225 -60q184 0 314.5 130.5t130.5 315.5q0 182 -130.5 312.5t-314.5 130.5q-185 0 -316.5 -130.5t-131.5 -312.5zM446 1540h84q0 -35 12.5 -70t38 -66.5t70.5 -51t103 -19.5t103 19.5 t70.5 51t38.5 66.5t13 70h82q0 -115 -85.5 -199t-221.5 -84t-222 84t-86 199z" />
<glyph unicode="&#x120;" horiz-adv-x="1761" d="M184 727q0 152 53.5 289t147.5 238.5t230 161t292 59.5q362 0 578 -310l-76 -59q-195 274 -502 274q-175 0 -319 -88.5t-224.5 -238t-80.5 -326.5t79.5 -326.5t221.5 -238t315 -88.5q168 0 304.5 77t216.5 208t96 294h-633v97h735q0 -218 -88.5 -393t-253 -276 t-377.5 -101q-153 0 -287.5 59.5t-227.5 160.5t-146.5 238t-53.5 289zM831 1810q0 31 21.5 52.5t50.5 21.5q31 0 52.5 -21.5t21.5 -52.5q0 -29 -21.5 -50t-52.5 -21q-29 0 -50.5 21t-21.5 50z" />
<glyph unicode="&#x121;" horiz-adv-x="1425" d="M184 520q0 109 42 208t113.5 171.5t171 115t208.5 42.5q156 0 281 -83t182 -216l6 278h94v-962q0 -277 -139.5 -421.5t-380.5 -144.5q-229 0 -465 140v90q30 -20 67.5 -40t98 -46t136 -42t149.5 -16q205 0 319.5 119t114.5 361v207q-56 -134 -181.5 -217.5t-281.5 -83.5 q-146 0 -269 72t-194.5 196.5t-71.5 271.5zM283 520q0 -121 60 -223.5t163 -162.5t225 -60q184 0 314.5 130.5t130.5 315.5q0 182 -130.5 312.5t-314.5 130.5q-185 0 -316.5 -130.5t-131.5 -312.5zM682 1393q0 31 21 52t51 21q31 0 52 -21t21 -52q0 -29 -21.5 -50.5 t-51.5 -21.5q-29 0 -50.5 21.5t-21.5 50.5z" />
<glyph unicode="&#x122;" horiz-adv-x="1761" d="M184 727q0 152 53.5 289t147.5 238.5t230 161t292 59.5q362 0 578 -310l-76 -59q-195 274 -502 274q-175 0 -319 -88.5t-224.5 -238t-80.5 -326.5t79.5 -326.5t221.5 -238t315 -88.5q168 0 304.5 77t216.5 208t96 294h-633v97h735q0 -218 -88.5 -393t-253 -276 t-377.5 -101q-153 0 -287.5 59.5t-227.5 160.5t-146.5 238t-53.5 289zM774 -467l74 344h117l-107 -344h-84z" />
<glyph unicode="&#x123;" horiz-adv-x="1425" d="M184 520q0 109 42 208t113.5 171.5t171 115t208.5 42.5q156 0 281 -83t182 -216l6 278h94v-962q0 -277 -139.5 -421.5t-380.5 -144.5q-229 0 -465 140v90q30 -20 67.5 -40t98 -46t136 -42t149.5 -16q205 0 319.5 119t114.5 361v207q-56 -134 -181.5 -217.5t-281.5 -83.5 q-146 0 -269 72t-194.5 196.5t-71.5 271.5zM283 520q0 -121 60 -223.5t163 -162.5t225 -60q184 0 314.5 130.5t130.5 315.5q0 182 -130.5 312.5t-314.5 130.5q-185 0 -316.5 -130.5t-131.5 -312.5zM694 1262l107 344h84l-74 -344h-117z" />
<glyph unicode="&#x126;" horiz-adv-x="1333" d="M-23 1110v94h183v250h98v-250h856v250h100v-250h220v-94h-220v-1110h-100v696h-856v-696h-98v1110h-183zM258 791h856v319h-856v-319z" />
<glyph unicode="&#x127;" horiz-adv-x="1226" d="M59 1153v94h125v289h99v-289h448v-94h-448v-340q67 108 174 176t254 68q177 0 283 -118t106 -339v-600h-99v569q0 198 -87 296t-230 98q-86 0 -156.5 -29.5t-113.5 -73.5t-73.5 -100t-43 -103.5t-14.5 -89.5v-567h-99v1153h-125z" />
<glyph unicode="&#x12a;" horiz-adv-x="385" d="M6 1772v94h416v-94h-416zM164 0v1454h98v-1454h-98z" />
<glyph unicode="&#x12b;" horiz-adv-x="413" d="M16 1354v94h416v-94h-416zM123 946v90h168v-1036h-98v942z" />
<glyph unicode="&#x12e;" horiz-adv-x="385" d="M103.5 -207.5q-12.5 42.5 4 99t64.5 108.5h-8v1454h98v-1454h-8q-32 -32 -50.5 -64t-22 -57.5t3.5 -46t24.5 -32t42.5 -11.5q69 0 139 55v-88q-61 -61 -153 -61q-50 0 -86 27.5t-48.5 70z" />
<glyph unicode="&#x12f;" horiz-adv-x="413" d="M123 946v90h168v-1036h-8q-32 -32 -50.5 -64t-22 -57.5t3.5 -46t24.5 -32t42.5 -11.5q69 0 139 55v-88q-61 -61 -154 -61q-50 0 -86 27.5t-48.5 70t4.5 99t65 108.5h-8v942zM152 1313q0 31 21 52t50 21q31 0 52.5 -21t21.5 -52q0 -29 -21.5 -50.5t-52.5 -21.5 q-29 0 -50 21.5t-21 50.5z" />
<glyph unicode="&#x130;" horiz-adv-x="385" d="M141 1810q0 31 21.5 52.5t50.5 21.5q31 0 52.5 -21.5t21.5 -52.5q0 -29 -21.5 -50t-52.5 -21q-29 0 -50.5 21t-21.5 50zM164 0v1454h98v-1454h-98z" />
<glyph unicode="&#x131;" horiz-adv-x="413" d="M123 946v90h168v-1036h-98v942z" />
<glyph unicode="&#x136;" horiz-adv-x="1249" d="M164 0v1454h98v-846l737 846h127l-604 -694l604 -760h-118l-549 686l-197 -225v-461h-98zM487 -467l74 344h117l-107 -344h-84z" />
<glyph unicode="&#x137;" horiz-adv-x="1148" d="M184 0v1536h99v-1063l604 563h139l-481 -450l481 -586h-125l-428 520l-190 -178v-342h-99zM440 -467l74 344h117l-107 -344h-84z" />
<glyph unicode="&#x139;" horiz-adv-x="1019" d="M184 0v1454h99v-1360h594v-94h-693zM193 1675l176 283h114l-207 -283h-83z" />
<glyph unicode="&#x13a;" horiz-adv-x="434" d="M143 1446v90h168v-1536h-98v1442zM201 1757l176 283h115l-207 -283h-84z" />
<glyph unicode="&#x13b;" horiz-adv-x="1019" d="M184 0v1454h99v-1360h594v-94h-693zM342 -467l74 344h116l-106 -344h-84z" />
<glyph unicode="&#x13c;" horiz-adv-x="434" d="M131 -467l74 344h117l-107 -344h-84zM143 1446v90h168v-1536h-98v1442z" />
<glyph unicode="&#x13d;" horiz-adv-x="1019" d="M-29 1958h99l159 -223l160 223h98l-213 -283h-90zM184 0v1454h99v-1360h594v-94h-693z" />
<glyph unicode="&#x13e;" horiz-adv-x="499" d="M143 1446v90h168v-1536h-98v1442zM408 1126l73 344h117l-106 -344h-84z" />
<glyph unicode="&#x141;" horiz-adv-x="1019" d="M-18 528v62l202 153v711h99v-637l204 154v-62l-204 -153v-662h594v-94h-693v682z" />
<glyph unicode="&#x142;" horiz-adv-x="434" d="M6 424v61l207 156v801l-70 4v90h168v-821l201 151v-61l-201 -152v-653h-98v580z" />
<glyph unicode="&#x143;" horiz-adv-x="1394" d="M164 0v1454h98l912 -1286v1286h98v-1454h-98l-912 1286v-1286h-98zM694 1675l176 283h115l-207 -283h-84z" />
<glyph unicode="&#x144;" horiz-adv-x="1226" d="M184 0v1036h92l7 -223q67 109 173.5 176.5t254.5 67.5q177 0 283 -118t106 -339v-600h-99v569q0 198 -87 296t-230 98q-86 0 -156.5 -29.5t-113.5 -73.5t-73.5 -100t-43 -103.5t-14.5 -89.5v-567h-99zM596 1257l176 283h115l-207 -283h-84z" />
<glyph unicode="&#x145;" horiz-adv-x="1394" d="M164 0v1454h98l912 -1286v1286h98v-1454h-98l-912 1286v-1286h-98zM606 -467l74 344h117l-107 -344h-84z" />
<glyph unicode="&#x146;" horiz-adv-x="1226" d="M184 0v1036h92l7 -223q67 109 173.5 176.5t254.5 67.5q177 0 283 -118t106 -339v-600h-99v569q0 198 -87 296t-230 98q-86 0 -156.5 -29.5t-113.5 -73.5t-73.5 -100t-43 -103.5t-14.5 -89.5v-567h-99zM508 -467l74 344h116l-106 -344h-84z" />
<glyph unicode="&#x147;" horiz-adv-x="1394" d="M164 0v1454h98l912 -1286v1286h98v-1454h-98l-912 1286v-1286h-98zM473 1958h98l160 -223l160 223h98l-213 -283h-90z" />
<glyph unicode="&#x148;" horiz-adv-x="1226" d="M184 0v1036h92l7 -223q67 109 173.5 176.5t254.5 67.5q177 0 283 -118t106 -339v-600h-99v569q0 198 -87 296t-230 98q-86 0 -156.5 -29.5t-113.5 -73.5t-73.5 -100t-43 -103.5t-14.5 -89.5v-567h-99zM375 1540h98l160 -223l160 223h98l-213 -283h-90z" />
<glyph unicode="&#x14a;" horiz-adv-x="1476" d="M164 0v1454h98l912 -1286v1286h98v-1581q0 -129 -56.5 -196.5t-152.5 -67.5q-53 0 -95.5 16.5t-64.5 34.5v90q19 -15 56.5 -31t72.5 -16q142 0 142 186v111l-912 1286v-1286h-98z" />
<glyph unicode="&#x14b;" horiz-adv-x="1210" d="M184 0v1036h92l7 -223q67 109 173.5 176.5t254.5 67.5q177 0 283 -118t106 -339v-659q0 -131 -57 -199t-154 -68q-91 0 -160 54v88q67 -47 129 -47q143 0 143 186v614q0 198 -87 296t-230 98q-86 0 -156.5 -29.5t-113.5 -73.5t-73.5 -100t-43 -103.5t-14.5 -89.5v-567 h-99z" />
<glyph unicode="&#x14c;" horiz-adv-x="1783" d="M184 727q0 152 56 289.5t152 238.5t231.5 160.5t287.5 59.5t288 -59.5t232.5 -160.5t152.5 -238.5t56 -289.5q0 -203 -95 -374t-263 -272t-371 -101t-370.5 101t-262 272t-94.5 374zM283 727q0 -131 49.5 -251.5t133 -208.5t200 -140.5t245.5 -52.5t246 52.5t201 140.5 t133 208.5t49 251.5t-49 251.5t-133 208.5t-201 140.5t-246 52.5t-245.5 -52.5t-200 -140.5t-133 -208.5t-49.5 -251.5zM705 1772v94h415v-94h-415z" />
<glyph unicode="&#x14d;" horiz-adv-x="1417" d="M184 520q0 145 72.5 268.5t198.5 196t276 72.5q149 0 274 -72.5t197 -196t72 -268.5q0 -147 -72 -271.5t-197 -196.5t-274 -72q-112 0 -213.5 42.5t-174.5 115t-116 172.5t-43 210zM283 520q0 -121 60 -223.5t163 -162.5t225 -60q184 0 314.5 130.5t130.5 315.5 q0 182 -130.5 312.5t-314.5 130.5q-185 0 -316.5 -130.5t-131.5 -312.5zM524 1354v94h416v-94h-416z" />
<glyph unicode="&#x150;" horiz-adv-x="1783" d="M184 727q0 152 56 289.5t152 238.5t231.5 160.5t287.5 59.5t288 -59.5t232.5 -160.5t152.5 -238.5t56 -289.5q0 -203 -95 -374t-263 -272t-371 -101t-370.5 101t-262 272t-94.5 374zM283 727q0 -131 49.5 -251.5t133 -208.5t200 -140.5t245.5 -52.5t246 52.5t201 140.5 t133 208.5t49 251.5t-49 251.5t-133 208.5t-201 140.5t-246 52.5t-245.5 -52.5t-200 -140.5t-133 -208.5t-49.5 -251.5zM788 1675l177 283h114l-207 -283h-84zM1020 1675l176 283h115l-207 -283h-84z" />
<glyph unicode="&#x151;" horiz-adv-x="1417" d="M184 520q0 145 72.5 268.5t198.5 196t276 72.5q149 0 274 -72.5t197 -196t72 -268.5q0 -147 -72 -271.5t-197 -196.5t-274 -72q-112 0 -213.5 42.5t-174.5 115t-116 172.5t-43 210zM283 520q0 -121 60 -223.5t163 -162.5t225 -60q184 0 314.5 130.5t130.5 315.5 q0 182 -130.5 312.5t-314.5 130.5q-185 0 -316.5 -130.5t-131.5 -312.5zM606 1257l176 283h115l-207 -283h-84zM838 1257l176 283h114l-206 -283h-84z" />
<glyph unicode="&#x152;" horiz-adv-x="2412" d="M184 727q0 152 56 289.5t152 238.5t231.5 160.5t287.5 59.5q228 0 408.5 -126t263.5 -331v436h744v-94h-646v-551h494v-94h-494v-621h646v-94h-744v436q-83 -205 -263.5 -330.5t-408.5 -125.5q-203 0 -370.5 101t-262 272t-94.5 374zM283 727q0 -131 49.5 -251.5 t133 -208.5t200 -140.5t245.5 -52.5t246 52.5t201 140.5t133 208.5t49 251.5t-49 251.5t-133 208.5t-201 140.5t-246 52.5t-245.5 -52.5t-200 -140.5t-133 -208.5t-49.5 -251.5z" />
<glyph unicode="&#x153;" horiz-adv-x="2287" d="M184 520q0 145 72.5 268.5t198.5 196t276 72.5q162 0 294 -85t198 -224q56 142 176.5 225.5t277.5 83.5q110 0 200 -44t147.5 -119.5t88.5 -174t31 -209.5v-29h-860q10 -200 127 -306.5t303 -106.5q200 0 375 135v-88q-64 -56 -167 -95.5t-220 -39.5q-167 0 -294 81.5 t-185 229.5q-66 -140 -198 -225.5t-294 -85.5q-112 0 -213.5 42.5t-174.5 115t-116 172.5t-43 210zM283 520q0 -121 60 -223.5t163 -162.5t225 -60q184 0 314.5 130.5t130.5 315.5q0 182 -130.5 312.5t-314.5 130.5q-185 0 -316.5 -130.5t-131.5 -312.5zM1284 561h764 q-14 178 -109.5 292t-259.5 114q-167 0 -276 -111t-119 -295z" />
<glyph unicode="&#x154;" horiz-adv-x="1216" d="M160 0v1454h489q117 0 217.5 -55.5t164 -164.5t63.5 -249q0 -179 -99 -301t-250 -156l353 -528h-115l-342 518h-383v-518h-98zM258 612h391q142 0 244 102.5t102 270.5q0 170 -102 272.5t-244 102.5h-391v-748zM541 1675l176 283h114l-206 -283h-84z" />
<glyph unicode="&#x155;" horiz-adv-x="733" d="M184 0v1036h92l7 -157q99 178 254 178q75 0 135 -47l-25 -84q-55 37 -115 37q-66 0 -116 -36.5t-78 -96t-41.5 -125t-13.5 -132.5v-573h-99zM406 1257l176 283h114l-207 -283h-83z" />
<glyph unicode="&#x156;" horiz-adv-x="1216" d="M160 0v1454h489q117 0 217.5 -55.5t164 -164.5t63.5 -249q0 -179 -99 -301t-250 -156l353 -528h-115l-342 518h-383v-518h-98zM258 612h391q142 0 244 102.5t102 270.5q0 170 -102 272.5t-244 102.5h-391v-748zM461 -467l74 344h116l-106 -344h-84z" />
<glyph unicode="&#x157;" horiz-adv-x="733" d="M100 -467l74 344h117l-107 -344h-84zM184 0v1036h92l7 -157q99 178 254 178q75 0 135 -47l-25 -84q-55 37 -115 37q-66 0 -116 -36.5t-78 -96t-41.5 -125t-13.5 -132.5v-573h-99z" />
<glyph unicode="&#x158;" horiz-adv-x="1216" d="M160 0v1454h489q117 0 217.5 -55.5t164 -164.5t63.5 -249q0 -179 -99 -301t-250 -156l353 -528h-115l-342 518h-383v-518h-98zM258 612h391q142 0 244 102.5t102 270.5q0 170 -102 272.5t-244 102.5h-391v-748zM322 1958h98l160 -223l159 223h99l-213 -283h-90z" />
<glyph unicode="&#x159;" horiz-adv-x="733" d="M184 0v1036h92l7 -157q99 178 254 178q75 0 135 -47l-25 -84q-55 37 -115 37q-66 0 -116 -36.5t-78 -96t-41.5 -125t-13.5 -132.5v-573h-99zM184 1540h99l159 -223l160 223h98l-213 -283h-90z" />
<glyph unicode="&#x15a;" horiz-adv-x="1230" d="M217 369h98q13 -142 112.5 -218.5t231.5 -76.5q151 0 240.5 72t89.5 190q0 68 -27 123.5t-81 100.5t-107.5 76t-134.5 69q-49 24 -71.5 35t-64.5 34t-62.5 37t-53 37.5t-48.5 43t-37 48t-30.5 56.5t-16.5 63t-7 74q0 149 115 245.5t282 96.5q158 0 265.5 -102.5 t119.5 -250.5h-98q-12 110 -91.5 184t-195.5 74q-125 0 -212 -70.5t-87 -179.5q0 -53 18 -97.5t37.5 -72t69 -60t75.5 -46t95 -45.5q17 -8 25 -12q79 -37 135.5 -68.5t113.5 -75t92.5 -88t57.5 -104t22 -127.5q0 -160 -119 -257t-309 -97q-175 0 -302.5 106.5t-139.5 282.5z M625 1675l176 283h114l-206 -283h-84z" />
<glyph unicode="&#x15b;" horiz-adv-x="1091" d="M184 260h99q31 -89 108 -140.5t197 -51.5t190 49t70 127q0 25 -4 46t-15.5 40t-21.5 33t-33.5 30t-38.5 25.5t-49.5 25t-54.5 24t-65 27.5t-70 29q-48 19 -79.5 33.5t-72.5 40t-65.5 52t-42 66.5t-17.5 87q0 114 96 184t222 70q139 0 231 -73.5t104 -192.5h-98 q-12 83 -77 131.5t-158 48.5q-85 0 -152.5 -45.5t-67.5 -122.5q0 -23 7 -43t16.5 -35.5t30 -31.5t37 -27t49 -26.5t55 -25t65.5 -27.5t70 -30q56 -23 93 -41t79.5 -46.5t67.5 -58.5t42 -73t17 -94q0 -118 -99.5 -191t-262.5 -73q-159 0 -266.5 74.5t-135.5 205.5zM510 1257 l176 283h115l-207 -283h-84z" />
<glyph unicode="&#x15e;" horiz-adv-x="1230" d="M217 369h98q13 -142 112.5 -218.5t231.5 -76.5q151 0 240.5 72t89.5 190q0 68 -27 123.5t-81 100.5t-107.5 76t-134.5 69q-49 24 -71.5 35t-64.5 34t-62.5 37t-53 37.5t-48.5 43t-37 48t-30.5 56.5t-16.5 63t-7 74q0 149 115 245.5t282 96.5q158 0 265.5 -102.5 t119.5 -250.5h-98q-12 110 -91.5 184t-195.5 74q-125 0 -212 -70.5t-87 -179.5q0 -53 18 -97.5t37.5 -72t69 -60t75.5 -46t95 -45.5q17 -8 25 -12q79 -37 135.5 -68.5t113.5 -75t92.5 -88t57.5 -104t22 -127.5q0 -152 -107.5 -247.5t-281.5 -104.5l-39 -82q71 -3 117.5 -35 t46.5 -88q0 -152 -303 -152l23 62q213 0 213 88q0 66 -125 69l-58 -2l50 140q-164 11 -279 115.5t-127 271.5z" />
<glyph unicode="&#x15f;" horiz-adv-x="1091" d="M184 260h99q31 -89 108 -140.5t197 -51.5t190 49t70 127q0 25 -4 46t-15.5 40t-21.5 33t-33.5 30t-38.5 25.5t-49.5 25t-54.5 24t-65 27.5t-70 29q-48 19 -79.5 33.5t-72.5 40t-65.5 52t-42 66.5t-17.5 87q0 114 96 184t222 70q139 0 231 -73.5t104 -192.5h-98 q-12 83 -77 131.5t-158 48.5q-85 0 -152.5 -45.5t-67.5 -122.5q0 -23 7 -43t16.5 -35.5t30 -31.5t37 -27t49 -26.5t55 -25t65.5 -27.5t70 -30q56 -23 93 -41t79.5 -46.5t67.5 -58.5t42 -73t17 -94q0 -113 -91 -185.5t-243 -78.5l-39 -80q71 -3 117.5 -35t46.5 -88 q0 -152 -303 -152l23 62q213 0 213 88q0 66 -125 69l-58 -2l50 140q-141 11 -235.5 84t-119.5 194z" />
<glyph unicode="&#x160;" horiz-adv-x="1230" d="M217 369h98q13 -142 112.5 -218.5t231.5 -76.5q151 0 240.5 72t89.5 190q0 68 -27 123.5t-81 100.5t-107.5 76t-134.5 69q-49 24 -71.5 35t-64.5 34t-62.5 37t-53 37.5t-48.5 43t-37 48t-30.5 56.5t-16.5 63t-7 74q0 149 115 245.5t282 96.5q158 0 265.5 -102.5 t119.5 -250.5h-98q-12 110 -91.5 184t-195.5 74q-125 0 -212 -70.5t-87 -179.5q0 -53 18 -97.5t37.5 -72t69 -60t75.5 -46t95 -45.5q17 -8 25 -12q79 -37 135.5 -68.5t113.5 -75t92.5 -88t57.5 -104t22 -127.5q0 -160 -119 -257t-309 -97q-175 0 -302.5 106.5t-139.5 282.5z M403 1958h99l160 -223l159 223h99l-213 -283h-91z" />
<glyph unicode="&#x161;" horiz-adv-x="1091" d="M184 260h99q31 -89 108 -140.5t197 -51.5t190 49t70 127q0 25 -4 46t-15.5 40t-21.5 33t-33.5 30t-38.5 25.5t-49.5 25t-54.5 24t-65 27.5t-70 29q-48 19 -79.5 33.5t-72.5 40t-65.5 52t-42 66.5t-17.5 87q0 114 96 184t222 70q139 0 231 -73.5t104 -192.5h-98 q-12 83 -77 131.5t-158 48.5q-85 0 -152.5 -45.5t-67.5 -122.5q0 -23 7 -43t16.5 -35.5t30 -31.5t37 -27t49 -26.5t55 -25t65.5 -27.5t70 -30q56 -23 93 -41t79.5 -46.5t67.5 -58.5t42 -73t17 -94q0 -118 -99.5 -191t-262.5 -73q-159 0 -266.5 74.5t-135.5 205.5zM289 1540 h98l160 -223l160 223h98l-213 -283h-90z" />
<glyph unicode="&#x162;" horiz-adv-x="1083" d="M143 1360v94h838v-94h-371v-1360h-8l-47 -100q71 -3 117.5 -35t46.5 -88q0 -152 -303 -152l22 62q213 0 213 88q0 66 -125 69l-57 -2l55 158h-12v1360h-369z" />
<glyph unicode="&#x163;" horiz-adv-x="653" d="M123 942v94h133v307h98v-307h197v-94h-197v-942h-8l-47 -100q71 -3 117.5 -35t46.5 -88q0 -152 -303 -152l22 62q213 0 213 88q0 66 -125 69l-57 -2l55 158h-12v942h-133z" />
<glyph unicode="&#x164;" horiz-adv-x="1083" d="M143 1360v94h838v-94h-371v-1360h-98v1360h-369zM299 1958h98l160 -223l160 223h98l-213 -283h-90z" />
<glyph unicode="&#x165;" horiz-adv-x="653" d="M123 942v94h133v307h98v-307h197v-94h-197v-942h-98v942h-133zM498 1143l73 344h117l-106 -344h-84z" />
<glyph unicode="&#x166;" horiz-adv-x="1083" d="M143 1360v94h838v-94h-371v-586h291v-94h-291v-680h-98v680h-283v94h283v586h-369z" />
<glyph unicode="&#x167;" horiz-adv-x="653" d="M123 942v94h133v307h98v-307h197v-94h-197v-291h166v-94h-166v-557h-98v557h-109v94h109v291h-133z" />
<glyph unicode="&#x168;" horiz-adv-x="1366" d="M160 571v883h98v-883q0 -129 33 -226t94 -155.5t141 -87t179 -28.5q98 0 177.5 28.5t140 87t93.5 155.5t33 226v883h98v-883q0 -293 -145.5 -442t-396.5 -149q-252 0 -398.5 149t-146.5 442zM319 1751q3 75 55 130.5t146 55.5q43 0 83 -16t71 -39.5t61 -46.5t65.5 -39 t71.5 -16q64 0 98 33t34 79l86 -10q-3 -76 -54.5 -131t-146.5 -55q-43 0 -83 16t-71 39t-61 45.5t-65.5 38.5t-71.5 16q-62 0 -95.5 -33.5t-33.5 -78.5z" />
<glyph unicode="&#x169;" horiz-adv-x="1226" d="M168 436v600h98v-569q0 -198 87.5 -295.5t230.5 -97.5q89 0 161 31t115 77t72.5 103.5t41 106.5t11.5 89v555h98v-1036h-94l-4 223q-151 -243 -428 -243q-177 0 -283 117.5t-106 338.5zM258 1333q3 75 55 131t146 56q43 0 83 -16.5t71 -39.5t61 -46t65.5 -39.5 t71.5 -16.5q64 0 97.5 33t33.5 80l86 -11q-3 -76 -54.5 -131t-146.5 -55q-52 0 -102 24.5t-83 53.5t-78 53.5t-89 24.5q-62 0 -95.5 -34t-33.5 -79z" />
<glyph unicode="&#x16a;" horiz-adv-x="1366" d="M160 571v883h98v-883q0 -129 33 -226t94 -155.5t141 -87t179 -28.5q98 0 177.5 28.5t140 87t93.5 155.5t33 226v883h98v-883q0 -293 -145.5 -442t-396.5 -149q-252 0 -398.5 149t-146.5 442zM496 1772v94h415v-94h-415z" />
<glyph unicode="&#x16b;" horiz-adv-x="1226" d="M168 436v600h98v-569q0 -198 87.5 -295.5t230.5 -97.5q89 0 161 31t115 77t72.5 103.5t41 106.5t11.5 89v555h98v-1036h-94l-4 223q-151 -243 -428 -243q-177 0 -283 117.5t-106 338.5zM436 1354v94h416v-94h-416z" />
<glyph unicode="&#x16e;" horiz-adv-x="1366" d="M160 571v883h98v-883q0 -129 33 -226t94 -155.5t141 -87t179 -28.5q98 0 177.5 28.5t140 87t93.5 155.5t33 226v883h98v-883q0 -293 -145.5 -442t-396.5 -149q-252 0 -398.5 149t-146.5 442zM561 1835q0 60 42 101.5t102 41.5q59 0 100 -41.5t41 -101.5t-41 -101.5 t-100 -41.5q-60 0 -102 41.5t-42 101.5zM621 1835q0 -34 24.5 -58t59.5 -24q34 0 57.5 24t23.5 58t-23.5 58t-57.5 24q-35 0 -59.5 -24t-24.5 -58z" />
<glyph unicode="&#x16f;" horiz-adv-x="1226" d="M168 436v600h98v-569q0 -198 87.5 -295.5t230.5 -97.5q89 0 161 31t115 77t72.5 103.5t41 106.5t11.5 89v555h98v-1036h-94l-4 223q-151 -243 -428 -243q-177 0 -283 117.5t-106 338.5zM502 1417q0 60 41.5 102t101.5 42q59 0 100 -42t41 -102t-41 -101.5t-100 -41.5 q-60 0 -101.5 41.5t-41.5 101.5zM561 1417q0 -34 24.5 -58t59.5 -24q34 0 58 24t24 58t-24 58t-58 24q-35 0 -59.5 -24t-24.5 -58z" />
<glyph unicode="&#x170;" horiz-adv-x="1366" d="M160 571v883h98v-883q0 -129 33 -226t94 -155.5t141 -87t179 -28.5q98 0 177.5 28.5t140 87t93.5 155.5t33 226v883h98v-883q0 -293 -145.5 -442t-396.5 -149q-252 0 -398.5 149t-146.5 442zM580 1675l176 283h114l-206 -283h-84zM811 1675l176 283h115l-207 -283h-84z " />
<glyph unicode="&#x171;" horiz-adv-x="1226" d="M168 436v600h98v-569q0 -198 87.5 -295.5t230.5 -97.5q89 0 161 31t115 77t72.5 103.5t41 106.5t11.5 89v555h98v-1036h-94l-4 223q-151 -243 -428 -243q-177 0 -283 117.5t-106 338.5zM520 1257l176 283h115l-207 -283h-84zM752 1257l176 283h114l-206 -283h-84z" />
<glyph unicode="&#x172;" horiz-adv-x="1366" d="M160 571v883h98v-883q0 -129 33 -226t94 -155.5t141 -87t179 -28.5q98 0 177.5 28.5t140 87t93.5 155.5t33 226v883h98v-883q0 -292 -144 -440.5t-392 -150.5q-49 -69 -37 -119.5t69 -50.5q70 0 140 55v-88q-62 -62 -154 -62q-62 0 -101 39.5t-39 99.5t44 130 q-220 19 -346.5 167.5t-126.5 419.5z" />
<glyph unicode="&#x173;" horiz-adv-x="1226" d="M168 436v600h98v-569q0 -198 87.5 -295.5t230.5 -97.5q89 0 161 31t115 77t72.5 103.5t41 106.5t11.5 89v555h98v-1036h-4q-32 -32 -50.5 -64t-22 -57.5t3.5 -46t24.5 -32t42.5 -11.5q70 0 140 55v-88q-61 -61 -154 -61q-50 0 -86 27.5t-48.5 70t4 99t64.5 108.5h-8 l-4 223q-151 -243 -428 -243q-177 0 -283 117.5t-106 338.5z" />
<glyph unicode="&#x174;" horiz-adv-x="2273" d="M143 1454h103l430 -1319l430 1319h102l430 -1319l433 1319h100l-475 -1454h-113l-426 1298l-424 -1298h-115zM901 1675l213 283h90l213 -283h-98l-160 223l-160 -223h-98z" />
<glyph unicode="&#x175;" horiz-adv-x="1888" d="M164 1036h104l322 -911l321 911h105l321 -911l324 911h104l-374 -1036h-105l-321 891l-324 -891h-102zM709 1257l213 283h90l213 -283h-99l-159 224l-160 -224h-98z" />
<glyph unicode="&#x176;" horiz-adv-x="1366" d="M143 1454h113l446 -723l449 723h113l-512 -827v-627h-99v627zM446 1675l213 283h91l213 -283h-99l-159 223l-160 -223h-99z" />
<glyph unicode="&#x177;" horiz-adv-x="1306" d="M164 1036h106l408 -911l399 911h107l-660 -1507h-106l207 473zM424 1257l213 283h90l213 -283h-98l-160 224l-160 -224h-98z" />
<glyph unicode="&#x178;" horiz-adv-x="1366" d="M143 1454h113l446 -723l449 723h113l-512 -827v-627h-99v627zM481 1810q0 31 21.5 52.5t50.5 21.5q31 0 52.5 -21.5t21.5 -52.5q0 -29 -21.5 -50t-52.5 -21q-29 0 -50.5 21t-21.5 50zM778 1810q0 31 21.5 52.5t50.5 21.5q31 0 52.5 -21.5t21.5 -52.5q0 -29 -21.5 -50 t-52.5 -21q-29 0 -50.5 21t-21.5 50z" />
<glyph unicode="&#x179;" horiz-adv-x="1376" d="M184 0v94l944 1266h-944v94h1069v-94l-944 -1266h944v-94h-1069zM688 1675l176 283h115l-207 -283h-84z" />
<glyph unicode="&#x17a;" horiz-adv-x="1099" d="M184 0v94l662 848h-662v94h793v-94l-664 -848h664v-94h-793zM530 1257l177 283h114l-207 -283h-84z" />
<glyph unicode="&#x17b;" horiz-adv-x="1376" d="M184 0v94l944 1266h-944v94h1069v-94l-944 -1266h944v-94h-1069zM657 1810q0 31 21.5 52.5t50.5 21.5q31 0 52.5 -21.5t21.5 -52.5q0 -29 -21.5 -50t-52.5 -21q-29 0 -50.5 21t-21.5 50z" />
<glyph unicode="&#x17c;" horiz-adv-x="1099" d="M184 0v94l662 848h-662v94h793v-94l-664 -848h664v-94h-793zM500 1393q0 31 21 52t50 21q31 0 52.5 -21t21.5 -52q0 -29 -21.5 -50.5t-52.5 -21.5q-29 0 -50 21.5t-21 50.5z" />
<glyph unicode="&#x17d;" horiz-adv-x="1376" d="M184 0v94l944 1266h-944v94h1069v-94l-944 -1266h944v-94h-1069zM469 1958h98l160 -223l160 223h98l-213 -283h-90z" />
<glyph unicode="&#x17e;" horiz-adv-x="1099" d="M184 0v94l662 848h-662v94h793v-94l-664 -848h664v-94h-793zM309 1540h99l159 -223l160 223h98l-213 -283h-90z" />
<glyph unicode="&#x218;" horiz-adv-x="1230" d="M217 369h98q13 -142 112.5 -218.5t231.5 -76.5q151 0 240.5 72t89.5 190q0 68 -27 123.5t-81 100.5t-107.5 76t-134.5 69q-49 24 -71.5 35t-64.5 34t-62.5 37t-53 37.5t-48.5 43t-37 48t-30.5 56.5t-16.5 63t-7 74q0 149 115 245.5t282 96.5q158 0 265.5 -102.5 t119.5 -250.5h-98q-12 110 -91.5 184t-195.5 74q-125 0 -212 -70.5t-87 -179.5q0 -53 18 -97.5t37.5 -72t69 -60t75.5 -46t95 -45.5q17 -8 25 -12q79 -37 135.5 -68.5t113.5 -75t92.5 -88t57.5 -104t22 -127.5q0 -160 -119 -257t-309 -97q-175 0 -302.5 106.5t-139.5 282.5z M537 -467l73 344h117l-106 -344h-84z" />
<glyph unicode="&#x219;" horiz-adv-x="1091" d="M184 260h99q31 -89 108 -140.5t197 -51.5t190 49t70 127q0 25 -4 46t-15.5 40t-21.5 33t-33.5 30t-38.5 25.5t-49.5 25t-54.5 24t-65 27.5t-70 29q-48 19 -79.5 33.5t-72.5 40t-65.5 52t-42 66.5t-17.5 87q0 114 96 184t222 70q139 0 231 -73.5t104 -192.5h-98 q-12 83 -77 131.5t-158 48.5q-85 0 -152.5 -45.5t-67.5 -122.5q0 -23 7 -43t16.5 -35.5t30 -31.5t37 -27t49 -26.5t55 -25t65.5 -27.5t70 -30q56 -23 93 -41t79.5 -46.5t67.5 -58.5t42 -73t17 -94q0 -118 -99.5 -191t-262.5 -73q-159 0 -266.5 74.5t-135.5 205.5zM453 -467 l73 344h117l-106 -344h-84z" />
<glyph unicode="&#x21a;" horiz-adv-x="1083" d="M143 1360v94h838v-94h-371v-1360h-98v1360h-369zM432 -467l74 344h117l-107 -344h-84z" />
<glyph unicode="&#x21b;" horiz-adv-x="653" d="M123 942v94h133v307h98v-307h197v-94h-197v-942h-98v942h-133zM176 -467l74 344h117l-107 -344h-84z" />
<glyph unicode="&#x2c6;" horiz-adv-x="927" d="M205 1184l213 282h90l213 -282h-98l-160 223l-160 -223h-98z" />
<glyph unicode="&#x2c7;" horiz-adv-x="927" d="M205 1466h98l162 -223l160 223h98l-215 -282h-88z" />
<glyph unicode="&#x2d8;" horiz-adv-x="1024" d="M205 1466h84q0 -35 12.5 -69.5t37.5 -66t70 -51t103 -19.5t103 19.5t70.5 51t38.5 66t13 69.5h82q0 -115 -85.5 -198.5t-221.5 -83.5t-221.5 83.5t-85.5 198.5z" />
<glyph unicode="&#x2d9;" horiz-adv-x="555" d="M205 1319q0 31 20.5 51.5t50.5 20.5q31 0 52.5 -20.5t21.5 -51.5t-21.5 -51.5t-52.5 -20.5q-30 0 -50.5 20.5t-20.5 51.5z" />
<glyph unicode="&#x2da;" horiz-adv-x="694" d="M205 1343q0 60 41.5 102t101.5 42q59 0 100 -42t41 -102t-41 -101.5t-100 -41.5q-60 0 -101.5 41.5t-41.5 101.5zM264 1343q0 -34 24.5 -57.5t59.5 -23.5q34 0 58 23.5t24 57.5t-24 58t-58 24q-35 0 -59.5 -24t-24.5 -58z" />
<glyph unicode="&#x2db;" horiz-adv-x="706" d="M213.5 -207.5q-12.5 42.5 4 99t63.5 108.5h84q-52 -52 -68 -102t2.5 -79.5t60.5 -29.5q72 0 142 55v-88q-61 -61 -154 -61q-50 0 -86 27.5t-48.5 70z" />
<glyph unicode="&#x2dc;" horiz-adv-x="1179" d="M205 1257q3 76 54.5 131.5t146.5 55.5q52 0 102 -24.5t83 -53.5t78 -53.5t89 -24.5q64 0 97.5 33t33.5 80l86 -12q-3 -75 -55 -131t-146 -56q-43 0 -83 16.5t-71 39.5t-61 46t-65.5 39.5t-71.5 16.5q-62 0 -95.5 -34t-33.5 -79z" />
<glyph unicode="&#x2dd;" horiz-adv-x="933" d="M205 1184l176 282h115l-207 -282h-84zM436 1184l176 282h117l-209 -282h-84z" />
<glyph unicode="&#x300;" d="M-496 1466h115l176 -282h-82z" />
<glyph unicode="&#x301;" d="M-496 1184l177 282h114l-207 -282h-84z" />
<glyph unicode="&#x302;" d="M-723 1184l213 282h90l213 -282h-98l-160 223l-160 -223h-98z" />
<glyph unicode="&#x303;" d="M-975 1257q3 76 54.5 131.5t146.5 55.5q52 0 102 -24.5t83 -53.5t78 -53.5t89 -24.5q64 0 97.5 33t33.5 80l86 -12q-3 -75 -55 -131t-146 -56q-43 0 -83 16.5t-71 39.5t-61 46t-65.5 39.5t-71.5 16.5q-62 0 -95.5 -34t-33.5 -79z" />
<glyph unicode="&#x304;" d="M-625 1280v94h416v-94h-416z" />
<glyph unicode="&#x306;" d="M-819 1466h84q0 -35 12.5 -69.5t37.5 -66t70 -51t103 -19.5t103 19.5t70.5 51t38.5 66t13 69.5h82q0 -115 -85.5 -198.5t-221.5 -83.5t-221.5 83.5t-85.5 198.5z" />
<glyph unicode="&#x307;" d="M-350 1319q0 31 21 51.5t50 20.5q31 0 52.5 -20.5t21.5 -51.5t-21.5 -51.5t-52.5 -20.5q-29 0 -50 20.5t-21 51.5z" />
<glyph unicode="&#x308;" d="M-643 1319q0 30 21 51t51 21q31 0 52 -20.5t21 -51.5t-21 -51.5t-52 -20.5q-30 0 -51 21t-21 51zM-346 1319q0 30 21 51t51 21q31 0 52 -20.5t21 -51.5t-21 -51.5t-52 -20.5q-30 0 -51 21t-21 51z" />
<glyph unicode="&#x30a;" d="M-489 1343q0 60 41.5 102t101.5 42q59 0 100 -42t41 -102t-41 -101.5t-100 -41.5q-60 0 -101.5 41.5t-41.5 101.5zM-430 1343q0 -34 24.5 -57.5t59.5 -23.5q34 0 58 23.5t24 57.5t-24 58t-58 24q-35 0 -59.5 -24t-24.5 -58z" />
<glyph unicode="&#x30b;" d="M-688 1184l176 282h115l-207 -282h-84zM-457 1184l176 282h117l-209 -282h-84z" />
<glyph unicode="&#x30c;" d="M-723 1466h98l160 -223l160 223h98l-213 -282h-90z" />
<glyph unicode="&#x312;" d="M-395 1188l104 344h86l-74 -344h-116z" />
<glyph unicode="&#x326;" d="M-395 -467l73 344h117l-106 -344h-84z" />
<glyph unicode="&#x327;" d="M-477 -375l22 62q213 0 213 88q0 66 -125 69l-57 -2l55 158h78l-47 -100q71 -3 117.5 -35t46.5 -88q0 -152 -303 -152z" />
<glyph unicode="&#x328;" d="M-517.5 -207.5q-12.5 42.5 4 99t64.5 108.5h82q-32 -32 -50.5 -64t-22 -57.5t3.5 -46t24.5 -32t42.5 -11.5q70 0 140 55v-88q-61 -61 -154 -61q-50 0 -86 27.5t-48.5 70z" />
<glyph unicode="&#x335;" d="M-877 434v94h672v-94h-672z" />
<glyph unicode="&#x336;" d="M-1483 430v94h1454v-94h-1454z" />
<glyph unicode="&#x337;" d="M-711 260v62l506 380v-61z" />
<glyph unicode="&#x338;" d="M-1438 -82l1221 1618h61l-1222 -1618h-60z" />
<glyph unicode="&#x1e80;" horiz-adv-x="2273" d="M143 1454h103l430 -1319l430 1319h102l430 -1319l433 1319h100l-475 -1454h-113l-426 1298l-424 -1298h-115zM907 1958h115l176 -283h-84z" />
<glyph unicode="&#x1e81;" horiz-adv-x="1888" d="M164 1036h104l322 -911l321 911h105l321 -911l324 911h104l-374 -1036h-105l-321 891l-324 -891h-102zM717 1540h114l177 -283h-84z" />
<glyph unicode="&#x1e82;" horiz-adv-x="2273" d="M143 1454h103l430 -1319l430 1319h102l430 -1319l433 1319h100l-475 -1454h-113l-426 1298l-424 -1298h-115zM1116 1675l176 283h115l-207 -283h-84z" />
<glyph unicode="&#x1e83;" horiz-adv-x="1888" d="M164 1036h104l322 -911l321 911h105l321 -911l324 911h104l-374 -1036h-105l-321 891l-324 -891h-102zM926 1257l176 283h115l-207 -283h-84z" />
<glyph unicode="&#x1e84;" horiz-adv-x="2273" d="M143 1454h103l430 -1319l430 1319h102l430 -1319l433 1319h100l-475 -1454h-113l-426 1298l-424 -1298h-115zM936 1810q0 31 21.5 52.5t50.5 21.5q31 0 52 -21.5t21 -52.5q0 -29 -21 -50t-52 -21q-29 0 -50.5 21t-21.5 50zM1233 1810q0 31 21.5 52.5t50.5 21.5 q31 0 52 -21.5t21 -52.5q0 -29 -21 -50t-52 -21q-29 0 -50.5 21t-21.5 50z" />
<glyph unicode="&#x1e85;" horiz-adv-x="1888" d="M164 1036h104l322 -911l321 911h105l321 -911l324 911h104l-374 -1036h-105l-321 891l-324 -891h-102zM745 1393q0 31 21.5 52t50.5 21q31 0 52.5 -21t21.5 -52q0 -29 -21.5 -50.5t-52.5 -21.5q-29 0 -50.5 21.5t-21.5 50.5zM1042 1393q0 31 21 52t51 21q31 0 52.5 -21 t21.5 -52q0 -29 -21.5 -50.5t-52.5 -21.5q-29 0 -50.5 21.5t-21.5 50.5z" />
<glyph unicode="&#x1ebc;" horiz-adv-x="1021" d="M145 1751q3 75 55 130.5t146 55.5q43 0 83 -16t71 -39.5t61 -46.5t65.5 -39t71.5 -16q64 0 97.5 32.5t33.5 79.5l86 -10q-3 -76 -54 -131t-146 -55q-43 0 -83 16t-71 39t-61 45.5t-66 38.5t-72 16q-62 0 -95.5 -33.5t-33.5 -78.5zM160 0v1454h743v-94h-645v-551h494v-94 h-494v-621h645v-94h-743z" />
<glyph unicode="&#x1ebd;" horiz-adv-x="1290" d="M184 524q0 229 139 381t357 152q110 0 200 -44t147.5 -119.5t88.5 -174t31 -209.5v-29h-862q10 -200 128 -306.5t304 -106.5q200 0 375 135v-88q-64 -56 -167 -95.5t-220 -39.5q-111 0 -206.5 37.5t-165.5 106.5t-109.5 172t-39.5 228zM285 561h764q-13 178 -108.5 292 t-258.5 114q-168 0 -277.5 -111.5t-119.5 -294.5zM293 1333q3 75 55 131t146 56q43 0 83 -16.5t71 -39.5t61 -46t65.5 -39.5t71.5 -16.5q64 0 97.5 33t33.5 80l86 -11q-3 -76 -54.5 -131t-146.5 -55q-52 0 -102 24.5t-83 53.5t-78 53.5t-89 24.5q-62 0 -95.5 -34t-33.5 -79z " />
<glyph unicode="&#x1ef2;" horiz-adv-x="1366" d="M143 1454h113l446 -723l449 723h113l-512 -827v-627h-99v627zM453 1958h114l176 -283h-84z" />
<glyph unicode="&#x1ef3;" horiz-adv-x="1306" d="M164 1036h106l408 -911l399 911h107l-660 -1507h-106l207 473zM430 1540h115l176 -283h-84z" />
<glyph unicode="&#x1ef8;" horiz-adv-x="1366" d="M143 1454h113l446 -723l449 723h113l-512 -827v-627h-99v627zM317 1751q3 75 55 130.5t146 55.5q43 0 83 -16t71 -39.5t61 -46.5t65.5 -39t71.5 -16q64 0 97.5 32.5t33.5 79.5l86 -10q-3 -76 -54 -131t-146 -55q-43 0 -83 16t-71 39t-61 45.5t-65.5 38.5t-71.5 16 q-62 0 -95.5 -33.5t-33.5 -78.5z" />
<glyph unicode="&#x1ef9;" horiz-adv-x="1306" d="M164 1036h106l408 -911l399 911h107l-660 -1507h-106l207 473zM297 1333q3 75 55 131t146 56q43 0 83 -16.5t71 -39.5t61 -46t65.5 -39.5t71.5 -16.5q64 0 97.5 33t33.5 80l86 -11q-3 -76 -54.5 -131t-146.5 -55q-52 0 -102 24.5t-83 53.5t-78 53.5t-89 24.5 q-62 0 -95.5 -34t-33.5 -79z" />
<glyph unicode="&#x2000;" horiz-adv-x="1020" />
<glyph unicode="&#x2001;" horiz-adv-x="2040" />
<glyph unicode="&#x2002;" horiz-adv-x="1020" />
<glyph unicode="&#x2003;" horiz-adv-x="2040" />
<glyph unicode="&#x2004;" horiz-adv-x="680" />
<glyph unicode="&#x2005;" horiz-adv-x="510" />
<glyph unicode="&#x2006;" horiz-adv-x="340" />
<glyph unicode="&#x2007;" horiz-adv-x="340" />
<glyph unicode="&#x2008;" horiz-adv-x="255" />
<glyph unicode="&#x2009;" horiz-adv-x="408" />
<glyph unicode="&#x200a;" horiz-adv-x="113" />
<glyph unicode="&#x2010;" horiz-adv-x="974" d="M172 512v94h672v-94h-672z" />
<glyph unicode="&#x2011;" horiz-adv-x="974" d="M172 512v94h672v-94h-672z" />
<glyph unicode="&#x2012;" horiz-adv-x="974" d="M172 512v94h672v-94h-672z" />
<glyph unicode="&#x2013;" horiz-adv-x="1613" d="M61 512v94h1512v-94h-1512z" />
<glyph unicode="&#x2014;" horiz-adv-x="2117" d="M61 512v94h2016v-94h-2016z" />
<glyph unicode="&#x2018;" horiz-adv-x="393" d="M102 1126l105 344h84l-72 -344h-117z" />
<glyph unicode="&#x2019;" horiz-adv-x="393" d="M100 1126l74 344h117l-105 -344h-86z" />
<glyph unicode="&#x201a;" horiz-adv-x="462" d="M61 -242l74 344h117l-107 -344h-84z" />
<glyph unicode="&#x201c;" horiz-adv-x="602" d="M106 1124l107 344h84l-74 -344h-117zM313 1124l107 344h84l-74 -344h-117z" />
<glyph unicode="&#x201d;" horiz-adv-x="602" d="M100 1126l74 344h117l-107 -344h-84zM307 1126l74 344h117l-107 -344h-84z" />
<glyph unicode="&#x201e;" horiz-adv-x="462" d="M61 -242l74 344h117l-107 -344h-84z" />
<glyph unicode="&#x2020;" horiz-adv-x="1081" d="M205 973v94h295v551h82v-551h295v-94h-295v-1137h-82v1137h-295z" />
<glyph unicode="&#x2021;" horiz-adv-x="1081" d="M205 399v95h295v479h-295v94h295v551h82v-551h295v-94h-295v-479h295v-95h-295v-563h-82v563h-295z" />
<glyph unicode="&#x2022;" horiz-adv-x="380" d="M61 604q0 45 32 77t77 32q46 0 78.5 -31.5t32.5 -77.5q0 -45 -32.5 -75.5t-78.5 -30.5q-45 0 -77 30.5t-32 75.5z" />
<glyph unicode="&#x2026;" horiz-adv-x="802" d="M61 51q0 31 21.5 52.5t50.5 21.5q31 0 52.5 -21.5t21.5 -52.5q0 -29 -21.5 -50t-52.5 -21q-29 0 -50.5 21t-21.5 50zM309 51q0 31 20.5 52.5t51.5 21.5t51.5 -21.5t20.5 -52.5q0 -29 -20.5 -50t-51.5 -21t-51.5 21t-20.5 50zM555 51q0 31 21.5 52.5t52.5 21.5 q29 0 50 -21.5t21 -52.5q0 -29 -21 -50t-50 -21q-31 0 -52.5 21t-21.5 50z" />
<glyph unicode="&#x202f;" horiz-adv-x="408" />
<glyph unicode="&#x2030;" horiz-adv-x="2793" d="M205 1137q0 141 98.5 239.5t239.5 98.5t239.5 -98.5t98.5 -239.5t-98.5 -239.5t-239.5 -98.5t-239.5 98.5t-98.5 239.5zM285 1137q0 -109 74.5 -183.5t183.5 -74.5t183.5 74.5t74.5 183.5t-74.5 183.5t-183.5 74.5t-183.5 -74.5t-74.5 -183.5zM428 0l1098 1454h100 l-1098 -1454h-100zM1169 317q0 141 98.5 239.5t239.5 98.5t239.5 -98.5t98.5 -239.5t-98.5 -239t-239.5 -98t-239.5 98t-98.5 239zM1247 317q0 -109 75.5 -183.5t184.5 -74.5q108 0 183 75t75 183t-75 183t-183 75q-109 0 -184.5 -74.5t-75.5 -183.5zM1954 317 q0 141 98.5 239.5t239.5 98.5t239.5 -98.5t98.5 -239.5t-98.5 -239t-239.5 -98t-239.5 98t-98.5 239zM2032 317q0 -109 75.5 -183.5t184.5 -74.5q108 0 183 75t75 183t-75 183t-183 75q-109 0 -184.5 -74.5t-75.5 -183.5z" />
<glyph unicode="&#x2039;" horiz-adv-x="733" d="M205 485l252 324h112l-252 -324l252 -323h-112z" />
<glyph unicode="&#x203a;" horiz-adv-x="714" d="M186 162l252 323l-252 324h113l252 -324l-252 -323h-113z" />
<glyph unicode="&#x2044;" horiz-adv-x="1361" d="M102 0l1098 1454h100l-1097 -1454h-101z" />
<glyph unicode="&#x205f;" horiz-adv-x="510" />
<glyph unicode="&#x20ac;" horiz-adv-x="1812" d="M205 489l14 50h266q-9 34 -16 94h-215l14 49h197q-2 14 -2 45q0 152 56 290t151.5 238.5t231 160t286.5 59.5q266 0 430 -148v-104q-174 157 -422 157q-129 0 -246.5 -51.5t-202.5 -139t-135.5 -208.5t-50.5 -254q0 -31 2 -45h641l-14 -49h-623q4 -32 21 -94h567l-14 -50 h-537q70 -185 231.5 -300t360.5 -115q247 0 422 157v-104q-163 -147 -430 -147q-242 0 -429 141.5t-259 367.5h-295z" />
<glyph unicode="&#x2122;" horiz-adv-x="1718" d="M164 1374v80h561v-80h-246v-534h-71v534h-244zM840 840v614h71l287 -518l285 518h71v-614h-71v475l-262 -475h-45l-265 475v-475h-71z" />
<glyph unicode="&#x2190;" horiz-adv-x="1767" d="M205 696v86l446 236v-96l-276 -140l1188 2v-84h-1196l284 -143v-94z" />
<glyph unicode="&#x2191;" horiz-adv-x="964" d="M205 1090l233 446h88l234 -446h-94l-142 278v-1368h-84v1368l-141 -278h-94z" />
<glyph unicode="&#x2192;" horiz-adv-x="1767" d="M205 700v84l1188 -2l-277 140v96l447 -236v-86l-447 -233v94l283 143h-1194z" />
<glyph unicode="&#x2193;" horiz-adv-x="964" d="M205 446h94l141 -278v1368h84v-1368l142 278h94l-234 -446h-88z" />
<glyph unicode="&#x2194;" horiz-adv-x="1945" d="M205 696v88l446 234v-94l-276 -142h1196l-277 140v96l447 -236v-86l-447 -233v94l283 143h-1208l282 -143v-94z" />
<glyph unicode="&#x2195;" horiz-adv-x="964" d="M205 446h94l143 -280v1204l-141 -280h-96l235 446h86l234 -446h-94l-140 276v-1194l140 274h94l-234 -446h-88z" />
<glyph unicode="&#x2196;" horiz-adv-x="1556" d="M207 1323l59 61l482 -149l-66 -68l-299 99l969 -969l-58 -59l-968 966l98 -295l-68 -67z" />
<glyph unicode="&#x2197;" horiz-adv-x="1556" d="M205 297l969 969l-300 -99l-65 68l481 149l60 -61l-150 -481l-67 67l98 295l-969 -966z" />
<glyph unicode="&#x2198;" horiz-adv-x="1556" d="M205 1282l57 59l969 -966l-98 295l67 67l150 -481l-60 -61l-481 149l65 68l300 -99z" />
<glyph unicode="&#x2199;" horiz-adv-x="1554" d="M205 256l149 481l68 -67l-98 -295l968 966l58 -59l-969 -969l299 99l65 -68l-481 -149z" />
<glyph unicode="&#x2212;" horiz-adv-x="1077" d="M213 543v94h672v-94h-672z" />
<glyph unicode="&#x2248;" horiz-adv-x="1179" d="M205 428q3 75 55 130.5t146 55.5q43 0 83 -16t71 -39t61 -46.5t65.5 -39.5t71.5 -16q63 0 97 33.5t34 80.5l86 -12q-3 -75 -55 -130.5t-146 -55.5q-43 0 -83 16t-71 39.5t-61 46.5t-65.5 39t-71.5 16q-62 0 -95.5 -34t-33.5 -80zM205 674q3 75 55 130.5t146 55.5 q43 0 83 -16.5t71 -39.5t61 -46t65.5 -39.5t71.5 -16.5q63 0 97 34t34 81l86 -12q-3 -75 -55 -131t-146 -56q-43 0 -83 16.5t-71 39.5t-61 46t-65.5 39.5t-71.5 16.5q-62 0 -95.5 -34t-33.5 -80z" />
<glyph unicode="&#x2260;" horiz-adv-x="1077" d="M205 428v94h266l51 135h-317v97h354l88 233h86l-88 -233h232v-97h-269l-51 -135h320v-94h-355l-86 -233h-86l86 233h-231z" />
<glyph unicode="&#x2264;" horiz-adv-x="1077" d="M201 74v94h671v-94h-671zM201 651v94l671 291v-92l-567 -246l567 -245v-91z" />
<glyph unicode="&#x2265;" horiz-adv-x="1081" d="M205 74v94h672v-94h-672zM205 362v91l567 245l-567 246v92l672 -291v-94z" />
<glyph unicode="&#x25ca;" horiz-adv-x="1255" d="M205 635l377 819h92l377 -819l-377 -819h-92zM297 635l332 -719l329 719l-329 719z" />
<glyph unicode="&#x25fc;" horiz-adv-x="1034" d="M0 0v1034h1034v-1034h-1034z" />
<glyph horiz-adv-x="413" d="M123 946v90h168v-1036h-98v942zM152 1311q0 31 21 52t50 21q31 0 52.5 -21t21.5 -52q0 -29 -21.5 -50.5t-52.5 -21.5q-29 0 -50 21.5t-21 50.5z" />
<glyph horiz-adv-x="1185" d="M184 281q0 64 25.5 115.5t66 84t94.5 54.5t108 31t110 9q117 0 213.5 -34.5t142.5 -69.5v131q0 87 -10.5 147t-40 114t-89.5 81t-151 27q-114 0 -226.5 -44.5t-178.5 -90.5v90q221 131 420 131q94 0 163 -25.5t109 -65.5t63.5 -102t31 -122.5t7.5 -139.5v-602h-96l-2 51 v31q-48 -34 -144 -68t-212 -34q-70 0 -138 16.5t-129.5 50.5t-99 94.5t-37.5 139.5zM283 281q0 -61 31 -107t81.5 -71t103.5 -36.5t107 -11.5q107 0 204 37t134 72v227q-37 35 -134 72t-204 37q-55 0 -107.5 -10.5t-103 -34t-81.5 -68.5t-31 -106z" />
<glyph horiz-adv-x="1185" d="M184 281q0 64 25.5 115.5t66 84t94.5 54.5t108 31t110 9q117 0 213.5 -34.5t142.5 -69.5v131q0 87 -10.5 147t-40 114t-89.5 81t-151 27q-114 0 -226.5 -44.5t-178.5 -90.5v90q221 131 420 131q94 0 163 -25.5t109 -65.5t63.5 -102t31 -122.5t7.5 -139.5v-602h-96l-2 51 v31q-48 -34 -144 -68t-212 -34q-70 0 -138 16.5t-129.5 50.5t-99 94.5t-37.5 139.5zM283 281q0 -61 31 -107t81.5 -71t103.5 -36.5t107 -11.5q107 0 204 37t134 72v227q-37 35 -134 72t-204 37q-55 0 -107.5 -10.5t-103 -34t-81.5 -68.5t-31 -106zM590 1257l176 283h115 l-207 -283h-84z" />
<glyph horiz-adv-x="1185" d="M184 281q0 64 25.5 115.5t66 84t94.5 54.5t108 31t110 9q117 0 213.5 -34.5t142.5 -69.5v131q0 87 -10.5 147t-40 114t-89.5 81t-151 27q-114 0 -226.5 -44.5t-178.5 -90.5v90q221 131 420 131q94 0 163 -25.5t109 -65.5t63.5 -102t31 -122.5t7.5 -139.5v-602h-96l-2 51 v31q-48 -34 -144 -68t-212 -34q-70 0 -138 16.5t-129.5 50.5t-99 94.5t-37.5 139.5zM283 281q0 -61 31 -107t81.5 -71t103.5 -36.5t107 -11.5q107 0 204 37t134 72v227q-37 35 -134 72t-204 37q-55 0 -107.5 -10.5t-103 -34t-81.5 -68.5t-31 -106zM324 1540h84 q0 -35 12.5 -70t37.5 -66.5t70 -51t103 -19.5t103 19.5t70.5 51t38.5 66.5t13 70h82q0 -115 -85.5 -199t-221.5 -84t-221.5 84t-85.5 199z" />
<glyph horiz-adv-x="1185" d="M184 281q0 64 25.5 115.5t66 84t94.5 54.5t108 31t110 9q117 0 213.5 -34.5t142.5 -69.5v131q0 87 -10.5 147t-40 114t-89.5 81t-151 27q-114 0 -226.5 -44.5t-178.5 -90.5v90q221 131 420 131q94 0 163 -25.5t109 -65.5t63.5 -102t31 -122.5t7.5 -139.5v-602h-96l-2 51 v31q-48 -34 -144 -68t-212 -34q-70 0 -138 16.5t-129.5 50.5t-99 94.5t-37.5 139.5zM283 281q0 -61 31 -107t81.5 -71t103.5 -36.5t107 -11.5q107 0 204 37t134 72v227q-37 35 -134 72t-204 37q-55 0 -107.5 -10.5t-103 -34t-81.5 -68.5t-31 -106zM375 1257l213 283h90 l213 -283h-98l-160 224l-160 -224h-98z" />
<glyph horiz-adv-x="1185" d="M184 281q0 64 25.5 115.5t66 84t94.5 54.5t108 31t110 9q117 0 213.5 -34.5t142.5 -69.5v131q0 87 -10.5 147t-40 114t-89.5 81t-151 27q-114 0 -226.5 -44.5t-178.5 -90.5v90q221 131 420 131q94 0 163 -25.5t109 -65.5t63.5 -102t31 -122.5t7.5 -139.5v-602h-96l-2 51 v31q-48 -34 -144 -68t-212 -34q-70 0 -138 16.5t-129.5 50.5t-99 94.5t-37.5 139.5zM283 281q0 -61 31 -107t81.5 -71t103.5 -36.5t107 -11.5q107 0 204 37t134 72v227q-37 35 -134 72t-204 37q-55 0 -107.5 -10.5t-103 -34t-81.5 -68.5t-31 -106zM412 1393q0 31 21 52 t50 21q31 0 52.5 -21t21.5 -52q0 -29 -21.5 -50.5t-52.5 -21.5q-29 0 -50 21.5t-21 50.5zM709 1393q0 31 21 52t50 21q31 0 52.5 -21t21.5 -52q0 -29 -21.5 -50.5t-52.5 -21.5q-29 0 -50 21.5t-21 50.5z" />
<glyph horiz-adv-x="1185" d="M184 281q0 64 25.5 115.5t66 84t94.5 54.5t108 31t110 9q117 0 213.5 -34.5t142.5 -69.5v131q0 87 -10.5 147t-40 114t-89.5 81t-151 27q-114 0 -226.5 -44.5t-178.5 -90.5v90q221 131 420 131q94 0 163 -25.5t109 -65.5t63.5 -102t31 -122.5t7.5 -139.5v-602h-96l-2 51 v31q-48 -34 -144 -68t-212 -34q-70 0 -138 16.5t-129.5 50.5t-99 94.5t-37.5 139.5zM283 281q0 -61 31 -107t81.5 -71t103.5 -36.5t107 -11.5q107 0 204 37t134 72v227q-37 35 -134 72t-204 37q-55 0 -107.5 -10.5t-103 -34t-81.5 -68.5t-31 -106zM381 1540h115l176 -283 h-84z" />
<glyph horiz-adv-x="1185" d="M184 281q0 64 25.5 115.5t66 84t94.5 54.5t108 31t110 9q117 0 213.5 -34.5t142.5 -69.5v131q0 87 -10.5 147t-40 114t-89.5 81t-151 27q-114 0 -226.5 -44.5t-178.5 -90.5v90q221 131 420 131q94 0 163 -25.5t109 -65.5t63.5 -102t31 -122.5t7.5 -139.5v-602h-96l-2 51 v31q-48 -34 -144 -68t-212 -34q-70 0 -138 16.5t-129.5 50.5t-99 94.5t-37.5 139.5zM283 281q0 -61 31 -107t81.5 -71t103.5 -36.5t107 -11.5q107 0 204 37t134 72v227q-37 35 -134 72t-204 37q-55 0 -107.5 -10.5t-103 -34t-81.5 -68.5t-31 -106zM424 1354v94h416v-94h-416 z" />
<glyph horiz-adv-x="1185" d="M184 281q0 64 25.5 115.5t66 84t94.5 54.5t108 31t110 9q117 0 213.5 -34.5t142.5 -69.5v131q0 87 -10.5 147t-40 114t-89.5 81t-151 27q-114 0 -226.5 -44.5t-178.5 -90.5v90q221 131 420 131q94 0 163 -25.5t109 -65.5t63.5 -102t31 -122.5t7.5 -139.5v-602h-8 q-32 -32 -50.5 -64t-22 -57.5t3.5 -46t24.5 -32t42.5 -11.5q69 0 139 55v-88q-61 -61 -153 -61q-50 0 -86 27.5t-48.5 70t4 99t64.5 108.5h-6l-2 51v31q-48 -34 -144 -68t-212 -34q-70 0 -138 16.5t-129.5 50.5t-99 94.5t-37.5 139.5zM283 281q0 -61 31 -107t81.5 -71 t103.5 -36.5t107 -11.5q107 0 204 37t134 72v227q-37 35 -134 72t-204 37q-55 0 -107.5 -10.5t-103 -34t-81.5 -68.5t-31 -106z" />
<glyph horiz-adv-x="1185" d="M184 281q0 64 25.5 115.5t66 84t94.5 54.5t108 31t110 9q117 0 213.5 -34.5t142.5 -69.5v131q0 87 -10.5 147t-40 114t-89.5 81t-151 27q-114 0 -226.5 -44.5t-178.5 -90.5v90q221 131 420 131q94 0 163 -25.5t109 -65.5t63.5 -102t31 -122.5t7.5 -139.5v-602h-96l-2 51 v31q-48 -34 -144 -68t-212 -34q-70 0 -138 16.5t-129.5 50.5t-99 94.5t-37.5 139.5zM283 281q0 -61 31 -107t81.5 -71t103.5 -36.5t107 -11.5q107 0 204 37t134 72v227q-37 35 -134 72t-204 37q-55 0 -107.5 -10.5t-103 -34t-81.5 -68.5t-31 -106zM489 1417q0 60 42 102 t102 42q59 0 100 -42t41 -102t-41 -101.5t-100 -41.5q-60 0 -102 41.5t-42 101.5zM549 1417q0 -34 24.5 -58t59.5 -24q34 0 58 24t24 58t-24 58t-58 24q-35 0 -59.5 -24t-24.5 -58z" />
<glyph horiz-adv-x="1185" d="M184 281q0 64 25.5 115.5t66 84t94.5 54.5t108 31t110 9q117 0 213.5 -34.5t142.5 -69.5v131q0 87 -10.5 147t-40 114t-89.5 81t-151 27q-114 0 -226.5 -44.5t-178.5 -90.5v90q221 131 420 131q94 0 163 -25.5t109 -65.5t63.5 -102t31 -122.5t7.5 -139.5v-602h-96l-2 51 v31q-48 -34 -144 -68t-212 -34q-70 0 -138 16.5t-129.5 50.5t-99 94.5t-37.5 139.5zM246 1333q3 76 54.5 131.5t145.5 55.5q43 0 83 -16.5t71 -39.5t61 -46t66 -39.5t72 -16.5q64 0 97.5 33t33.5 80l86 -11q-3 -76 -54.5 -131t-146.5 -55q-52 0 -102 24.5t-83 53.5t-78 53.5 t-89 24.5q-62 0 -95.5 -34t-33.5 -79zM283 281q0 -61 31 -107t81.5 -71t103.5 -36.5t107 -11.5q107 0 204 37t134 72v227q-37 35 -134 72t-204 37q-55 0 -107.5 -10.5t-103 -34t-81.5 -68.5t-31 -106z" />
<glyph horiz-adv-x="2060" d="M184 281q0 64 25.5 115.5t66 84t94.5 54.5t108 31t110 9q117 0 213.5 -34.5t142.5 -69.5v131q0 87 -10.5 147t-40 114t-89.5 81t-151 27q-114 0 -226.5 -44.5t-178.5 -90.5v90q221 131 420 131q160 0 242.5 -66.5t111.5 -185.5q64 118 176 185t252 67q110 0 200 -44 t147.5 -119.5t88.5 -174t31 -209.5v-29h-862q10 -200 128 -306.5t304 -106.5q200 0 375 135v-88q-64 -56 -167 -95.5t-220 -39.5q-138 0 -252 58t-181 163v-201h-96l-2 51v31q-48 -34 -144 -68t-212 -34q-70 0 -138 16.5t-129.5 50.5t-99 94.5t-37.5 139.5zM283 281 q0 -61 31 -107t81.5 -71t103.5 -36.5t107 -11.5q107 0 204 37t134 72v227q-37 35 -134 72t-204 37q-55 0 -107.5 -10.5t-103 -34t-81.5 -68.5t-31 -106zM1055 561h766q-14 178 -109.5 292t-259.5 114q-167 0 -277 -111.5t-120 -294.5z" />
<glyph horiz-adv-x="1290" d="M184 524q0 229 139 381t357 152q110 0 200 -44t147.5 -119.5t88.5 -174t31 -209.5v-29h-862q10 -200 128 -306.5t304 -106.5q200 0 375 135v-88q-64 -56 -167 -95.5t-220 -39.5q-111 0 -206.5 37.5t-165.5 106.5t-109.5 172t-39.5 228zM285 561h764q-13 178 -108.5 292 t-258.5 114q-168 0 -277.5 -111.5t-119.5 -294.5z" />
<glyph horiz-adv-x="1290" d="M184 524q0 229 139 381t357 152q110 0 200 -44t147.5 -119.5t88.5 -174t31 -209.5v-29h-862q10 -200 128 -306.5t304 -106.5q200 0 375 135v-88q-64 -56 -167 -95.5t-220 -39.5q-111 0 -206.5 37.5t-165.5 106.5t-109.5 172t-39.5 228zM285 561h764q-13 178 -108.5 292 t-258.5 114q-168 0 -277.5 -111.5t-119.5 -294.5zM637 1257l176 283h115l-207 -283h-84z" />
<glyph horiz-adv-x="1290" d="M184 524q0 229 139 381t357 152q110 0 200 -44t147.5 -119.5t88.5 -174t31 -209.5v-29h-862q10 -200 128 -306.5t304 -106.5q200 0 375 135v-88q-64 -56 -167 -95.5t-220 -39.5q-111 0 -206.5 37.5t-165.5 106.5t-109.5 172t-39.5 228zM285 561h764q-13 178 -108.5 292 t-258.5 114q-168 0 -277.5 -111.5t-119.5 -294.5zM416 1540h98l160 -223l160 223h98l-213 -283h-90z" />
<glyph horiz-adv-x="1290" d="M184 524q0 229 139 381t357 152q110 0 200 -44t147.5 -119.5t88.5 -174t31 -209.5v-29h-862q10 -200 128 -306.5t304 -106.5q200 0 375 135v-88q-64 -56 -167 -95.5t-220 -39.5q-111 0 -206.5 37.5t-165.5 106.5t-109.5 172t-39.5 228zM285 561h764q-13 178 -108.5 292 t-258.5 114q-168 0 -277.5 -111.5t-119.5 -294.5zM422 1257l213 283h90l213 -283h-98l-160 224l-160 -224h-98z" />
<glyph horiz-adv-x="1290" d="M184 524q0 229 139 381t357 152q110 0 200 -44t147.5 -119.5t88.5 -174t31 -209.5v-29h-862q10 -200 128 -306.5t304 -106.5q200 0 375 135v-88q-64 -56 -167 -95.5t-220 -39.5q-111 0 -206.5 37.5t-165.5 106.5t-109.5 172t-39.5 228zM285 561h764q-13 178 -108.5 292 t-258.5 114q-168 0 -277.5 -111.5t-119.5 -294.5zM457 1393q0 31 21 52t50 21q31 0 52.5 -21t21.5 -52q0 -29 -21.5 -50.5t-52.5 -21.5q-29 0 -50 21.5t-21 50.5zM754 1393q0 31 21 52t50 21q31 0 52.5 -21t21.5 -52q0 -29 -21.5 -50.5t-52.5 -21.5q-29 0 -50 21.5t-21 50.5 z" />
<glyph horiz-adv-x="1290" d="M184 524q0 229 139 381t357 152q110 0 200 -44t147.5 -119.5t88.5 -174t31 -209.5v-29h-862q10 -200 128 -306.5t304 -106.5q200 0 375 135v-88q-64 -56 -167 -95.5t-220 -39.5q-111 0 -206.5 37.5t-165.5 106.5t-109.5 172t-39.5 228zM285 561h764q-13 178 -108.5 292 t-258.5 114q-168 0 -277.5 -111.5t-119.5 -294.5zM606 1393q0 31 21 52t51 21q31 0 52.5 -21t21.5 -52q0 -29 -21.5 -50.5t-52.5 -21.5q-29 0 -50.5 21.5t-21.5 50.5z" />
<glyph horiz-adv-x="1290" d="M184 524q0 229 139 381t357 152q110 0 200 -44t147.5 -119.5t88.5 -174t31 -209.5v-29h-862q10 -200 128 -306.5t304 -106.5q200 0 375 135v-88q-64 -56 -167 -95.5t-220 -39.5q-111 0 -206.5 37.5t-165.5 106.5t-109.5 172t-39.5 228zM285 561h764q-13 178 -108.5 292 t-258.5 114q-168 0 -277.5 -111.5t-119.5 -294.5zM428 1540h115l176 -283h-84z" />
<glyph horiz-adv-x="1290" d="M184 524q0 229 139 381t357 152q110 0 200 -44t147.5 -119.5t88.5 -174t31 -209.5v-29h-862q10 -200 128 -306.5t304 -106.5q200 0 375 135v-88q-64 -56 -167 -95.5t-220 -39.5q-111 0 -206.5 37.5t-165.5 106.5t-109.5 172t-39.5 228zM285 561h764q-13 178 -108.5 292 t-258.5 114q-168 0 -277.5 -111.5t-119.5 -294.5zM471 1354v94h416v-94h-416z" />
<glyph horiz-adv-x="1290" d="M184 524q0 229 139 381t357 152q110 0 200 -44t147.5 -119.5t88.5 -174t31 -209.5v-29h-862q10 -200 128 -306.5t304 -106.5q200 0 375 135v-88q-62 -55 -162 -94.5t-215 -40.5q-41 -48 -51 -93t9 -71.5t58 -26.5q69 0 139 55v-88q-61 -61 -153 -61q-48 0 -83.5 25.5 t-49.5 65.5t-1 93.5t54 104.5q-202 22 -327.5 165.5t-125.5 374.5zM285 561h764q-13 178 -108.5 292t-258.5 114q-168 0 -277.5 -111.5t-119.5 -294.5z" />
<glyph horiz-adv-x="1290" d="M184 524q0 229 139 381t357 152q110 0 200 -44t147.5 -119.5t88.5 -174t31 -209.5v-29h-862q10 -200 128 -306.5t304 -106.5q200 0 375 135v-88q-64 -56 -167 -95.5t-220 -39.5q-111 0 -206.5 37.5t-165.5 106.5t-109.5 172t-39.5 228zM285 561h764q-13 178 -108.5 292 t-258.5 114q-168 0 -277.5 -111.5t-119.5 -294.5zM293 1333q3 75 55 131t146 56q43 0 83 -16.5t71 -39.5t61 -46t65.5 -39.5t71.5 -16.5q64 0 97.5 33t33.5 80l86 -11q-3 -76 -54.5 -131t-146.5 -55q-52 0 -102 24.5t-83 53.5t-78 53.5t-89 24.5q-62 0 -95.5 -34t-33.5 -79z " />
<glyph horiz-adv-x="1425" d="M184 520q0 109 42 208t113.5 171.5t171 115t208.5 42.5q156 0 281 -83t182 -216l6 278h94v-962q0 -277 -139.5 -421.5t-380.5 -144.5q-229 0 -465 140v90q30 -20 67.5 -40t98 -46t136 -42t149.5 -16q205 0 319.5 119t114.5 361v207q-56 -134 -181.5 -217.5t-281.5 -83.5 q-146 0 -269 72t-194.5 196.5t-71.5 271.5zM283 520q0 -121 60 -223.5t163 -162.5t225 -60q184 0 314.5 130.5t130.5 315.5q0 182 -130.5 312.5t-314.5 130.5q-185 0 -316.5 -130.5t-131.5 -312.5z" />
<glyph horiz-adv-x="1425" d="M184 520q0 109 42 208t113.5 171.5t171 115t208.5 42.5q156 0 281 -83t182 -216l6 278h94v-962q0 -277 -139.5 -421.5t-380.5 -144.5q-229 0 -465 140v90q30 -20 67.5 -40t98 -46t136 -42t149.5 -16q205 0 319.5 119t114.5 361v207q-56 -134 -181.5 -217.5t-281.5 -83.5 q-146 0 -269 72t-194.5 196.5t-71.5 271.5zM283 520q0 -121 60 -223.5t163 -162.5t225 -60q184 0 314.5 130.5t130.5 315.5q0 182 -130.5 312.5t-314.5 130.5q-185 0 -316.5 -130.5t-131.5 -312.5zM446 1540h84q0 -35 12.5 -70t38 -66.5t70.5 -51t103 -19.5t103 19.5 t70.5 51t38.5 66.5t13 70h82q0 -115 -85.5 -199t-221.5 -84t-222 84t-86 199z" />
<glyph horiz-adv-x="1425" d="M184 520q0 109 42 208t113.5 171.5t171 115t208.5 42.5q156 0 281 -83t182 -216l6 278h94v-962q0 -277 -139.5 -421.5t-380.5 -144.5q-229 0 -465 140v90q30 -20 67.5 -40t98 -46t136 -42t149.5 -16q205 0 319.5 119t114.5 361v207q-56 -134 -181.5 -217.5t-281.5 -83.5 q-146 0 -269 72t-194.5 196.5t-71.5 271.5zM283 520q0 -121 60 -223.5t163 -162.5t225 -60q184 0 314.5 130.5t130.5 315.5q0 182 -130.5 312.5t-314.5 130.5q-185 0 -316.5 -130.5t-131.5 -312.5zM694 1262l107 344h84l-74 -344h-117z" />
<glyph horiz-adv-x="1425" d="M184 520q0 109 42 208t113.5 171.5t171 115t208.5 42.5q156 0 281 -83t182 -216l6 278h94v-962q0 -277 -139.5 -421.5t-380.5 -144.5q-229 0 -465 140v90q30 -20 67.5 -40t98 -46t136 -42t149.5 -16q205 0 319.5 119t114.5 361v207q-56 -134 -181.5 -217.5t-281.5 -83.5 q-146 0 -269 72t-194.5 196.5t-71.5 271.5zM283 520q0 -121 60 -223.5t163 -162.5t225 -60q184 0 314.5 130.5t130.5 315.5q0 182 -130.5 312.5t-314.5 130.5q-185 0 -316.5 -130.5t-131.5 -312.5zM682 1393q0 31 21 52t51 21q31 0 52 -21t21 -52q0 -29 -21.5 -50.5 t-51.5 -21.5q-29 0 -50.5 21.5t-21.5 50.5z" />
<glyph horiz-adv-x="413" d="M123 946v90h168v-1036h-98v942zM152 1313q0 31 21 52t50 21q31 0 52.5 -21t21.5 -52q0 -29 -21.5 -50.5t-52.5 -21.5q-29 0 -50 21.5t-21 50.5z" />
<glyph horiz-adv-x="413" d="M123 946v90h168v-1036h-98v942z" />
<glyph horiz-adv-x="413" d="M123 946v90h168v-1036h-98v942zM182 1257l176 283h115l-207 -283h-84z" />
<glyph horiz-adv-x="413" d="M-33 1257l213 283h90l213 -283h-98l-160 224l-159 -224h-99zM123 946v90h168v-1036h-98v942z" />
<glyph horiz-adv-x="413" d="M4 1311q0 31 21 52t51 21q31 0 52.5 -21t21.5 -52q0 -29 -21.5 -50.5t-52.5 -21.5q-29 0 -50.5 21.5t-21.5 50.5zM123 946v90h168v-1036h-98v942zM301 1311q0 31 21.5 52t50.5 21q31 0 52 -21t21 -52q0 -29 -21 -50.5t-52 -21.5q-29 0 -50.5 21.5t-21.5 50.5z" />
<glyph horiz-adv-x="413" d="M123 946v90h168v-1036h-98v942zM152 1311q0 31 21 52t50 21q31 0 52.5 -21t21.5 -52q0 -29 -21.5 -50.5t-52.5 -21.5q-29 0 -50 21.5t-21 50.5z" />
<glyph horiz-adv-x="413" d="M-27 1540h115l176 -283h-84zM123 946v90h168v-1036h-98v942z" />
<glyph horiz-adv-x="413" d="M16 1354v94h416v-94h-416zM123 946v90h168v-1036h-98v942z" />
<glyph horiz-adv-x="413" d="M123 946v90h168v-1036h-8q-32 -32 -50.5 -64t-22 -57.5t3.5 -46t24.5 -32t42.5 -11.5q69 0 139 55v-88q-61 -61 -154 -61q-50 0 -86 27.5t-48.5 70t4.5 99t65 108.5h-8v942zM152 1313q0 31 21 52t50 21q31 0 52.5 -21t21.5 -52q0 -29 -21.5 -50.5t-52.5 -21.5 q-29 0 -50 21.5t-21 50.5z" />
<glyph horiz-adv-x="405" d="M61 -471l162 479v934l-69 4v90h168v-1036l-158 -471h-103zM174 1309q0 31 21 52t51 21q31 0 52 -21t21 -52q0 -29 -21.5 -50.5t-51.5 -21.5q-29 0 -50.5 21.5t-21.5 50.5z" />
<glyph horiz-adv-x="434" d="M143 1446v90h168v-1536h-98v1442z" />
<glyph horiz-adv-x="434" d="M143 1446v90h168v-1536h-98v1442zM201 1757l176 283h115l-207 -283h-84z" />
<glyph horiz-adv-x="499" d="M143 1446v90h168v-1536h-98v1442zM408 1126l73 344h117l-106 -344h-84z" />
<glyph horiz-adv-x="434" d="M131 -467l74 344h117l-107 -344h-84zM143 1446v90h168v-1536h-98v1442z" />
<glyph horiz-adv-x="434" d="M6 424v61l207 156v801l-70 4v90h168v-821l201 151v-61l-201 -152v-653h-98v580z" />
</font>
</defs>
</svg>
